<svg width="100" height="100" viewBox="0 0 100 100" fill="none" xmlns="http://www.w3.org/2000/svg">
<path fill-rule="evenodd" clip-rule="evenodd" d="M50 91.6666C73.0116 91.6666 91.6666 73.0116 91.6666 50C91.6666 26.9881 73.0116 8.33331 50 8.33331C26.9881 8.33331 8.33331 26.9881 8.33331 50C8.33331 73.0116 26.9881 91.6666 50 91.6666ZM53.125 37.5C53.125 35.7741 51.7258 34.375 50 34.375C48.2741 34.375 46.875 35.7741 46.875 37.5V46.875H37.5C35.7741 46.875 34.375 48.2741 34.375 50C34.375 51.7258 35.7741 53.125 37.5 53.125H46.875V62.5C46.875 64.2258 48.2741 65.625 50 65.625C51.7258 65.625 53.125 64.2258 53.125 62.5V53.125H62.5C64.2258 53.125 65.625 51.7258 65.625 50C65.625 48.2741 64.2258 46.875 62.5 46.875H53.125V37.5Z" fill="#EA4B12"/>
</svg>
