<svg width="100" height="100" viewBox="0 0 100 100" fill="none" xmlns="http://www.w3.org/2000/svg">
<g clip-path="url(#clip0_305_45)">
<path fill-rule="evenodd" clip-rule="evenodd" d="M70.4218 48.5468C69.203 49.7687 67.2249 49.7687 66.003 48.5468L53.125 35.6688V68.75C53.125 70.4688 51.725 71.875 50 71.875C48.2719 71.875 46.875 70.4688 46.875 68.75V35.6688L33.997 48.5468C32.7751 49.7687 30.7938 49.7687 29.5782 48.5468C28.3563 47.3312 28.3563 45.3499 29.5782 44.128L47.253 26.4532C48.003 25.7032 49.0281 25.4688 50 25.6407C50.9719 25.4688 51.997 25.7032 52.747 26.4532L70.4218 44.128C71.6437 45.3499 71.6437 47.3312 70.4218 48.5468ZM87.5 0H12.5C5.59687 0 0 5.59687 0 12.5V87.5C0 94.4062 5.59687 100 12.5 100H87.5C94.4031 100 100 94.4062 100 87.5V12.5C100 5.59687 94.4031 0 87.5 0Z" fill="#EA4B12"/>
</g>
<defs>
<clipPath id="clip0_305_45">
<rect width="100" height="100" fill="white"/>
</clipPath>
</defs>
</svg>
