<svg width="40" height="40" viewBox="0 0 40 40" fill="none" xmlns="http://www.w3.org/2000/svg">
<g clip-path="url(#clip0_305_60)">
<path fill-rule="evenodd" clip-rule="evenodd" d="M20.5813 28.1687C20.0925 27.6812 20.0925 26.89 20.5813 26.4012L25.7325 21.25L12.5 21.25C11.8125 21.25 11.25 20.69 11.25 20C11.25 19.3087 11.8125 18.75 12.5 18.75L25.7325 18.75L20.5813 13.5988C20.0925 13.11 20.0925 12.3175 20.5813 11.8313C21.0675 11.3425 21.86 11.3425 22.3488 11.8313L29.4187 18.9012C29.7187 19.2012 29.8125 19.6112 29.7437 20C29.8125 20.3887 29.7187 20.7988 29.4187 21.0988L22.3488 28.1687C21.86 28.6575 21.0675 28.6575 20.5813 28.1687ZM40 35L40 5C40 2.23875 37.7613 -9.78589e-08 35 -2.18557e-07L5 -1.5299e-06C2.2375 -1.65065e-06 -9.78589e-08 2.23875 -2.18557e-07 5L-1.5299e-06 35C-1.6506e-06 37.7612 2.2375 40 5 40L35 40C37.7612 40 40 37.7613 40 35Z" fill="#E2E6EE"/>
</g>
<defs>
<clipPath id="clip0_305_60">
<rect x="40" width="40" height="40" rx="20" transform="rotate(90 40 0)" fill="white"/>
</clipPath>
</defs>
</svg>
