<svg width="102" height="102" viewBox="0 0 102 102" fill="none" xmlns="http://www.w3.org/2000/svg">
<path d="M32.2496 32.25L50.9987 50.9994M50.9987 50.9994L69.7485 69.7494M50.9987 50.9994L32.2496 69.7494M50.9987 50.9994L69.7485 32.25M1 81.0012V21.0013C1 14.0006 1 10.4976 2.36242 7.82375C3.56078 5.47169 5.47163 3.56081 7.82367 2.36244C10.4975 1 14.0004 1 21.001 1H81.0002C88.0008 1 91.4995 1 94.1732 2.36244C96.5251 3.56081 98.4394 5.47169 99.6375 7.82375C101 10.4976 101 13.9979 101 20.9986V80.9988C101 87.9994 101 91.5 99.6375 94.1738C98.4394 96.5256 96.5251 98.4406 94.1732 99.6387C91.502 101 88.0083 101 81.0215 101H20.9804C13.9935 101 10.4949 101 7.82367 99.6387C5.47163 98.4406 3.56078 96.5262 2.36242 94.1744C1 91.5006 1 88.0019 1 81.0012Z" stroke="#EA4B12" stroke-width="2" stroke-linecap="round" stroke-linejoin="round"/>
</svg>
