<svg width="100" height="100" viewBox="0 0 100 100" fill="none" xmlns="http://www.w3.org/2000/svg">
<path d="M60.906 39.928C60.9063 40.7573 60.8168 41.5841 60.639 42.394C60.1593 44.5999 59.0341 46.6132 57.4067 48.1776C55.7792 49.742 53.7231 50.7868 51.5 51.179C50.8328 51.2975 50.1566 51.3571 49.479 51.357C44.152 51.357 39.458 47.588 38.317 42.395C37.9707 40.8272 37.9586 39.204 38.2815 37.6312C38.6044 36.0584 39.2551 34.5712 40.1911 33.2667C41.1271 31.9621 42.3274 30.8694 43.714 30.0597C45.1005 29.25 46.642 28.7415 48.2382 28.5673C49.8343 28.3932 51.4492 28.5572 52.9777 29.0489C54.5062 29.5405 55.914 30.3486 57.1093 31.4206C58.3047 32.4927 59.2607 33.8045 59.9152 35.2706C60.5697 36.7368 60.908 38.3244 60.908 39.93L60.906 39.928Z" fill="#EA4B12"/>
<path d="M86.6 6.40002H13.3C11.4435 6.40002 9.66306 7.13752 8.3503 8.45028C7.03755 9.76303 6.30005 11.5435 6.30005 13.4V86.7C6.30005 88.5565 7.03755 90.337 8.3503 91.6498C9.66306 92.9625 11.4435 93.7 13.3 93.7H86.6C88.4566 93.7 90.237 92.9625 91.5498 91.6498C92.8625 90.337 93.6 88.5565 93.6 86.7V13.4C93.6 11.5435 92.8625 9.76303 91.5498 8.45028C90.237 7.13752 88.4566 6.40002 86.6 6.40002ZM45.859 64.145C45.4981 67.3653 44.0933 70.379 41.859 72.726C40.2609 74.4109 38.293 75.7012 36.1106 76.495C33.9282 77.2888 31.5912 77.5644 29.284 77.3C21.084 76.358 15.184 68.922 16.126 60.725C16.5225 57.2357 18.1355 53.9975 20.6818 51.5791C23.2281 49.1606 26.5449 47.7164 30.05 47.5C30.4302 47.4764 30.8112 47.5278 31.1714 47.6515C31.5316 47.7751 31.864 47.9685 32.1495 48.2205C32.435 48.4726 32.668 48.7784 32.8353 49.1205C33.0026 49.4627 33.1009 49.8344 33.1245 50.2145C33.1482 50.5946 33.0967 50.9757 32.9731 51.3359C32.8495 51.6961 32.6561 52.0285 32.404 52.314C32.152 52.5995 31.8462 52.8325 31.504 52.9998C31.1619 53.1671 30.7902 53.2654 30.41 53.289C28.9197 53.3838 27.4751 53.8413 26.2018 54.6216C24.9286 55.402 23.8653 56.4817 23.1045 57.7667C22.3437 59.0517 21.9083 60.5031 21.8364 61.9947C21.7644 63.4864 22.0579 64.973 22.6915 66.3253C23.3251 67.6776 24.2794 68.8546 25.4716 69.7539C26.6638 70.6533 28.0576 71.2477 29.5319 71.4856C31.0062 71.7234 32.5163 71.5974 33.9308 71.1186C35.3453 70.6397 36.6214 69.8225 37.648 68.738C39.0176 67.3009 39.8788 65.4548 40.1 63.482C40.1763 62.8214 40.1807 62.1545 40.113 61.493C40.0348 60.7279 40.2637 59.963 40.7494 59.3666C41.2352 58.7703 41.9379 58.3913 42.703 58.313C43.4682 58.2348 44.2331 58.4637 44.8295 58.9494C45.4258 59.4351 45.8048 60.1379 45.883 60.903C45.992 61.9814 45.984 63.0684 45.859 64.145ZM52.517 56.889C48.1369 57.6726 43.6234 56.732 39.9209 54.2639C36.2184 51.7958 33.6138 47.9915 32.652 43.647C32.652 43.647 32.652 43.642 32.652 43.639C32.3856 42.42 32.2514 41.1758 32.252 39.928C32.252 30.428 39.981 22.7 49.48 22.7C58.979 22.7 66.709 30.429 66.709 39.928C66.7101 41.1762 66.576 42.4208 66.309 43.64C65.5738 46.9626 63.8721 49.9935 61.418 52.351C58.964 54.7086 55.8674 56.2875 52.518 56.889H52.517ZM68.853 65.774C66.6286 65.7754 64.4344 65.2583 62.4447 64.2639C60.4549 63.2694 58.7242 61.8249 57.39 60.045C56.928 59.4301 56.7292 58.6569 56.8373 57.8954C56.9455 57.1339 57.3516 56.4465 57.9665 55.9845C58.5814 55.5225 59.3547 55.3237 60.1162 55.4318C60.8777 55.5399 61.565 55.9461 62.027 56.561C62.861 57.6728 63.954 58.564 65.2108 59.157C66.4677 59.7501 67.8505 60.0272 69.2388 59.964C70.6272 59.9009 71.9791 59.4996 73.177 58.7949C74.3748 58.0902 75.3824 57.1036 76.1121 55.9207C76.8418 54.7379 77.2714 53.3947 77.3636 52.008C77.4558 50.6213 77.2079 49.233 76.6413 47.964C76.0747 46.6949 75.2067 45.5835 74.1127 44.7264C73.0187 43.8693 71.7318 43.2924 70.364 43.046C69.6069 42.911 68.9343 42.4808 68.4943 41.8499C68.0544 41.219 67.883 40.4392 68.018 39.682C68.153 38.9248 68.5833 38.2523 69.2142 37.8123C69.845 37.3724 70.6249 37.201 71.382 37.336C74.6935 37.9254 77.6915 39.6626 79.8494 42.2427C82.0073 44.8227 83.1873 48.0805 83.182 51.444C83.184 59.346 76.7551 65.774 68.853 65.774Z" fill="#EA4B12"/>
</svg>
