<svg width="100" height="100" viewBox="0 0 100 100" fill="none" xmlns="http://www.w3.org/2000/svg">
<path d="M86.6 6.40002H13.3C11.4435 6.40002 9.66306 7.13752 8.3503 8.45028C7.03755 9.76303 6.30005 11.5435 6.30005 13.4V86.7C6.30005 88.5565 7.03755 90.337 8.3503 91.6498C9.66306 92.9625 11.4435 93.7 13.3 93.7H86.6C88.4566 93.7 90.237 92.9625 91.5498 91.6498C92.8625 90.337 93.6 88.5565 93.6 86.7V13.4C93.6 11.5435 92.8625 9.76303 91.5498 8.45028C90.237 7.13752 88.4566 6.40002 86.6 6.40002ZM68.037 75.135C66.472 76.7 63.953 76.7 58.915 76.7H42.885C37.847 76.7 35.328 76.7 33.763 75.135C32.421 73.793 32.23 71.749 32.203 68.017H69.6C69.57 71.749 69.379 73.793 68.037 75.135ZM69.6 56.887V64.01H32.2V56.887C29.234 55.589 26.8401 53.2583 25.4632 50.328C24.0864 47.3978 23.8201 44.0673 24.714 40.9555C25.6079 37.8438 27.6011 35.1624 30.3233 33.4096C33.0454 31.6569 36.3113 30.952 39.514 31.426C40.3221 29.0469 41.855 26.9807 43.8975 25.5174C45.94 24.054 48.3895 23.2671 50.902 23.2671C53.4146 23.2671 55.8641 24.054 57.9066 25.5174C59.9491 26.9807 61.482 29.0469 62.29 31.426C65.4938 30.9497 68.7616 31.6533 71.4853 33.4061C74.2091 35.1589 76.2034 37.8415 77.0972 40.9547C77.991 44.0679 77.7235 47.3998 76.3444 50.3306C74.9653 53.2613 72.5686 55.5913 69.6 56.887Z" fill="#EA4B12"/>
</svg>
