<svg width="100" height="100" viewBox="0 0 100 100" fill="none" xmlns="http://www.w3.org/2000/svg">
<path d="M49.473 45.687L32.818 37.114L49.946 28.358L66.981 37.063L49.473 45.687Z" fill="#EA4B12"/>
<path d="M86.6 6.40002H13.3C11.4435 6.40002 9.66306 7.13752 8.3503 8.45028C7.03755 9.76303 6.30005 11.5435 6.30005 13.4V86.7C6.30005 88.5565 7.03755 90.337 8.3503 91.6498C9.66306 92.9625 11.4435 93.7 13.3 93.7H86.6C88.4566 93.7 90.237 92.9625 91.5498 91.6498C92.8625 90.337 93.6 88.5565 93.6 86.7V13.4C93.6 11.5435 92.8625 9.76303 91.5498 8.45028C90.237 7.13752 88.4566 6.40002 86.6 6.40002ZM25.905 35.509C26.1969 35.0453 26.6102 34.6705 27.1 34.425L47.8851 23.8C48.523 23.474 49.2291 23.304 49.9455 23.304C50.6619 23.304 51.3681 23.474 52.0061 23.8L72.793 34.418C73.2857 34.6705 73.6991 35.054 73.9878 35.5263C74.2765 35.9986 74.4293 36.5415 74.4293 37.095C74.4293 37.6486 74.2765 38.1914 73.9878 38.6637C73.6991 39.1361 73.2857 39.5196 72.793 39.772L72.758 39.789L50.787 50.614C50.3724 50.8177 49.9165 50.9235 49.4546 50.9235C48.9926 50.9235 48.5367 50.8177 48.122 50.614L48.0811 50.593L27.052 39.769C26.6855 39.5762 26.3627 39.3097 26.1039 38.9863C25.8451 38.6629 25.656 38.2895 25.5483 37.8895C25.4406 37.4895 25.4167 37.0716 25.4781 36.662C25.5395 36.2524 25.6848 35.8598 25.905 35.509ZM73.362 65.282L50.266 76.7H48.6171L26.5 65.261C25.9111 64.956 25.4675 64.4296 25.2667 63.7975C25.066 63.1654 25.1245 62.4794 25.4295 61.8905C25.7345 61.3016 26.261 60.858 26.8931 60.6572C27.5252 60.4565 28.2111 60.515 28.8 60.82L49.474 71.514L71.146 60.8C71.4406 60.652 71.7615 60.5638 72.0903 60.5403C72.4192 60.5168 72.7494 60.5586 73.062 60.6632C73.3746 60.7679 73.6634 60.9333 73.9118 61.15C74.1602 61.3667 74.3633 61.6304 74.5094 61.9259C74.6555 62.2214 74.7417 62.5429 74.7631 62.8719C74.7845 63.2008 74.7406 63.5308 74.6339 63.8427C74.5273 64.1546 74.36 64.4423 74.1417 64.6894C73.9235 64.9364 73.6585 65.1378 73.362 65.282ZM73.362 52.388L50.262 63.806H48.6171L26.5 52.367C25.9111 52.062 25.4675 51.5356 25.2667 50.9035C25.066 50.2714 25.1245 49.5854 25.4295 48.9965C25.7345 48.4076 26.261 47.964 26.8931 47.7632C27.5252 47.5625 28.2111 47.621 28.8 47.926L49.474 58.62L71.146 47.905C71.4404 47.7595 71.7605 47.6734 72.0882 47.6516C72.4158 47.6299 72.7445 47.6728 73.0556 47.7781C73.3666 47.8833 73.6538 48.0488 73.9009 48.2651C74.148 48.4813 74.35 48.7442 74.4956 49.0385C74.6411 49.3329 74.7271 49.653 74.7489 49.9807C74.7707 50.3083 74.7278 50.637 74.6225 50.948C74.5173 51.2591 74.3518 51.5463 74.1355 51.7934C73.9192 52.0405 73.6564 52.2425 73.362 52.388Z" fill="#EA4B12"/>
</svg>
