<svg width="100" height="100" viewBox="0 0 100 100" fill="none" xmlns="http://www.w3.org/2000/svg">
<path d="M35 30C34.0111 30 33.0444 30.2933 32.2221 30.8427C31.3999 31.3921 30.759 32.173 30.3806 33.0866C30.0022 34.0002 29.9031 35.0056 30.0961 35.9755C30.289 36.9454 30.7652 37.8363 31.4645 38.5356C32.1637 39.2348 33.0546 39.711 34.0245 39.9039C34.9944 40.0969 35.9998 39.9979 36.9134 39.6194C37.827 39.241 38.6079 38.6001 39.1573 37.7779C39.7067 36.9556 40 35.9889 40 35C40 33.6739 39.4732 32.4022 38.5355 31.4645C37.5978 30.5268 36.3261 30 35 30ZM35 30C34.0111 30 33.0444 30.2933 32.2221 30.8427C31.3999 31.3921 30.759 32.173 30.3806 33.0866C30.0022 34.0002 29.9031 35.0056 30.0961 35.9755C30.289 36.9454 30.7652 37.8363 31.4645 38.5356C32.1637 39.2348 33.0546 39.711 34.0245 39.9039C34.9944 40.0969 35.9998 39.9979 36.9134 39.6194C37.827 39.241 38.6079 38.6001 39.1573 37.7779C39.7067 36.9556 40 35.9889 40 35C40 33.6739 39.4732 32.4022 38.5355 31.4645C37.5978 30.5268 36.3261 30 35 30ZM86.6 6.40002H13.3C11.4435 6.40002 9.66299 7.13752 8.35024 8.45028C7.03749 9.76303 6.29999 11.5435 6.29999 13.4V86.7C6.29999 88.5565 7.03749 90.337 8.35024 91.6498C9.66299 92.9625 11.4435 93.7 13.3 93.7H86.6C88.4565 93.7 90.237 92.9625 91.5497 91.6498C92.8625 90.337 93.6 88.5565 93.6 86.7V13.4C93.6 11.5435 92.8625 9.76303 91.5497 8.45028C90.237 7.13752 88.4565 6.40002 86.6 6.40002ZM56.667 40C57.3264 40 57.9711 40.1956 58.5194 40.562C59.0677 40.9284 59.495 41.4491 59.7473 42.0584C59.9996 42.6677 60.0656 43.3381 59.9369 43.9848C59.8081 44.6316 59.4905 45.2256 59.0241 45.6919C58.5578 46.1581 57.9636 46.4756 57.3168 46.6041C56.67 46.7326 55.9996 46.6664 55.3904 46.414C54.7812 46.1615 54.2606 45.734 53.8944 45.1856C53.5282 44.6372 53.3328 43.9925 53.333 43.333C53.333 42.8952 53.4192 42.4618 53.5868 42.0573C53.7543 41.6529 53.9999 41.2854 54.3095 40.9759C54.6192 40.6664 54.9867 40.4209 55.3912 40.2534C55.7957 40.086 56.2292 39.9999 56.667 40ZM35 23.333C37.3075 23.333 39.5632 24.0173 41.4818 25.2993C43.4005 26.5813 44.8958 28.4034 45.7789 30.5353C46.6619 32.6671 46.893 35.013 46.4428 37.2761C45.9926 39.5393 44.8815 41.6182 43.2498 43.2498C41.6181 44.8815 39.5393 45.9927 37.2761 46.4428C35.0129 46.893 32.6671 46.662 30.5352 45.7789C28.4034 44.8959 26.5812 43.4005 25.2992 41.4819C24.0172 39.5632 23.333 37.3075 23.333 35C23.3333 31.9058 24.5625 28.9384 26.7505 26.7505C28.9384 24.5626 31.9058 23.3333 35 23.333ZM45.69 70.976C46.3151 71.6011 46.6663 72.449 46.6663 73.333C46.6663 74.2171 46.3151 75.0649 45.69 75.69C45.0649 76.3151 44.217 76.6663 43.333 76.6663C42.4489 76.6663 41.6011 76.3151 40.976 75.69L35 69.714L29.024 75.69C28.3989 76.3151 27.551 76.6663 26.667 76.6663C25.7829 76.6663 24.9351 76.3151 24.31 75.69C23.6849 75.0649 23.3337 74.2171 23.3337 73.333C23.3337 72.449 23.6849 71.6011 24.31 70.976L30.286 65L24.31 59.024C23.6849 58.3989 23.3337 57.5511 23.3337 56.667C23.3337 55.783 23.6849 54.9351 24.31 54.31C24.9351 53.6849 25.7829 53.3337 26.667 53.3337C27.551 53.3337 28.3989 53.6849 29.024 54.31L35 60.286L40.976 54.31C41.6011 53.6849 42.4489 53.3337 43.333 53.3337C44.217 53.3337 45.0649 53.6849 45.69 54.31C46.3151 54.9351 46.6663 55.783 46.6663 56.667C46.6663 57.5511 46.3151 58.3989 45.69 59.024L39.714 65L45.69 70.976ZM50 53.333C49.3408 53.333 48.6964 53.1375 48.1483 52.7713C47.6002 52.4051 47.173 51.8845 46.9207 51.2755C46.6684 50.6665 46.6024 49.9963 46.731 49.3498C46.8596 48.7032 47.1771 48.1094 47.6432 47.6432C48.1093 47.1771 48.7032 46.8597 49.3498 46.7311C49.9963 46.6025 50.6664 46.6685 51.2755 46.9207C51.8845 47.173 52.405 47.6002 52.7713 48.1483C53.1375 48.6964 53.333 49.3408 53.333 50C53.333 50.4377 53.2468 50.8711 53.0793 51.2755C52.9118 51.6799 52.6663 52.0473 52.3568 52.3568C52.0473 52.6663 51.6798 52.9118 51.2755 53.0793C50.8711 53.2468 50.4377 53.333 50 53.333ZM65 76.667C62.6925 76.667 60.4368 75.9828 58.5182 74.7008C56.5995 73.4188 55.1041 71.5967 54.2211 69.4648C53.338 67.3329 53.107 64.9871 53.5572 62.7239C54.0073 60.4607 55.1185 58.3819 56.7502 56.7502C58.3818 55.1185 60.4607 54.0074 62.7239 53.5572C64.987 53.107 67.3329 53.3381 69.4648 54.2211C71.5966 55.1042 73.4188 56.5996 74.7007 58.5182C75.9827 60.4368 76.667 62.6925 76.667 65C76.6667 68.0942 75.4374 71.0616 73.2495 73.2495C71.0616 75.4375 68.0942 76.6668 65 76.667ZM60 36.667C59.9998 36.0075 60.1952 35.3628 60.5614 34.8144C60.9277 34.2659 61.4484 33.8385 62.0577 33.586C62.6669 33.3335 63.3373 33.2674 63.9842 33.396C64.631 33.5246 65.2251 33.8422 65.6915 34.3085C66.1578 34.7749 66.4754 35.369 66.604 36.0158C66.7326 36.6627 66.6665 37.3331 66.414 37.9424C66.1615 38.5516 65.7341 39.0723 65.1856 39.4386C64.6372 39.8048 63.9925 40.0002 63.333 40C62.4491 39.9998 61.6015 39.6485 60.9765 39.0235C60.3515 38.3985 60.0002 37.5509 60 36.667ZM76.667 40C76.6518 40.8741 76.294 41.7073 75.6705 42.3201C75.047 42.9329 74.2077 43.2763 73.3335 43.2763C72.4593 43.2763 71.62 42.9329 70.9965 42.3201C70.373 41.7073 70.0151 40.8741 70 40V30H60C59.1259 29.9849 58.2927 29.627 57.6799 29.0035C57.0671 28.38 56.7237 27.5408 56.7237 26.6665C56.7237 25.7923 57.0671 24.953 57.6799 24.3295C58.2927 23.706 59.1259 23.3482 60 23.333H73.333C73.7708 23.333 74.2044 23.4193 74.6088 23.5868C75.0134 23.7544 75.3809 23.9999 75.6905 24.3095C76.0001 24.6191 76.2457 24.9867 76.4132 25.3912C76.5807 25.7957 76.667 26.2292 76.667 26.667V40ZM65 60C64.0111 60 63.0444 60.2933 62.2221 60.8427C61.3999 61.3921 60.759 62.173 60.3806 63.0866C60.0021 64.0002 59.9031 65.0056 60.0961 65.9755C60.289 66.9454 60.7652 67.8363 61.4645 68.5356C62.1637 69.2348 63.0546 69.711 64.0245 69.9039C64.9944 70.0969 65.9998 69.9979 66.9134 69.6194C67.827 69.241 68.6079 68.6001 69.1573 67.7779C69.7067 66.9556 70 65.9889 70 65C70 63.6739 69.4732 62.4022 68.5355 61.4645C67.5978 60.5268 66.3261 60 65 60ZM35 40C35.9889 40 36.9556 39.7068 37.7778 39.1574C38.6001 38.608 39.2409 37.8271 39.6194 36.9134C39.9978 35.9998 40.0968 34.9945 39.9039 34.0246C39.711 33.0547 39.2348 32.1638 38.5355 31.4645C37.8363 30.7652 36.9453 30.289 35.9754 30.0961C35.0055 29.9032 34.0002 30.0022 33.0866 30.3806C32.1729 30.7591 31.392 31.3999 30.8426 32.2222C30.2932 33.0444 30 34.0111 30 35C30 36.3261 30.5268 37.5979 31.4645 38.5356C32.4021 39.4732 33.6739 40 35 40ZM35 30C34.0111 30 33.0444 30.2933 32.2221 30.8427C31.3999 31.3921 30.759 32.173 30.3806 33.0866C30.0022 34.0002 29.9031 35.0056 30.0961 35.9755C30.289 36.9454 30.7652 37.8363 31.4645 38.5356C32.1637 39.2348 33.0546 39.711 34.0245 39.9039C34.9944 40.0969 35.9998 39.9979 36.9134 39.6194C37.827 39.241 38.6079 38.6001 39.1573 37.7779C39.7067 36.9556 40 35.9889 40 35C40 33.6739 39.4732 32.4022 38.5355 31.4645C37.5978 30.5268 36.3261 30 35 30ZM35 30C34.0111 30 33.0444 30.2933 32.2221 30.8427C31.3999 31.3921 30.759 32.173 30.3806 33.0866C30.0022 34.0002 29.9031 35.0056 30.0961 35.9755C30.289 36.9454 30.7652 37.8363 31.4645 38.5356C32.1637 39.2348 33.0546 39.711 34.0245 39.9039C34.9944 40.0969 35.9998 39.9979 36.9134 39.6194C37.827 39.241 38.6079 38.6001 39.1573 37.7779C39.7067 36.9556 40 35.9889 40 35C40 33.6739 39.4732 32.4022 38.5355 31.4645C37.5978 30.5268 36.3261 30 35 30Z" fill="#EA4B12"/>
</svg>
