<svg width="100" height="100" viewBox="0 0 100 100" fill="none" xmlns="http://www.w3.org/2000/svg">
<path d="M54.861 68.249C54.861 68.249 54.483 71.762 51.336 73.079C48.189 74.396 45.979 74.242 42.051 74.242C38.123 74.242 35.04 72.904 32.776 71.242C30.512 69.58 27.625 66.172 26.562 63.606C25.499 61.04 24.519 55.544 26.623 54.471C27.373 54.089 29.723 51.801 33.5 51.599C37.214 51.399 42.111 55.42 45.7 55.499C48.705 55.565 51.358 53.608 52.326 53.935C55.626 55.05 54.861 68.249 54.861 68.249Z" fill="#EA4B12"/>
<path d="M68.6051 52.8441C68.7591 51.2871 67.6218 49.9 66.0647 49.746C64.5077 49.5919 63.1206 50.7293 62.9666 52.2863C62.8126 53.8433 63.9499 55.2304 65.5069 55.3844C67.0639 55.5385 68.451 54.4011 68.6051 52.8441Z" fill="#EA4B12"/>
<path d="M86.6 6.40002H13.3C11.4435 6.40002 9.66299 7.13752 8.35024 8.45028C7.03749 9.76303 6.29999 11.5435 6.29999 13.4V86.7C6.29999 88.5565 7.03749 90.337 8.35024 91.6498C9.66299 92.9625 11.4435 93.7 13.3 93.7H86.6C88.4565 93.7 90.237 92.9625 91.5497 91.6498C92.8625 90.337 93.6 88.5565 93.6 86.7V13.4C93.6 11.5435 92.8625 9.76303 91.5497 8.45028C90.237 7.13752 88.4565 6.40002 86.6 6.40002ZM63.762 69.372L60.936 54.572C60.186 51.195 62.024 48.872 64.326 48.005V37.126L62.081 38.954C62.055 38.954 62.031 38.949 62.005 38.945C54.618 48.105 56.656 59.629 56.692 68.867C56.729 78.547 39.94 78.667 31.899 73.009C23.858 67.351 18.287 51.523 27.41 48.283C36.11 45.194 47.626 43.213 53.756 33.193C53.734 33.147 53.714 33.102 53.693 33.056L55.639 27.533L56.51 28.145L58.782 23.521C62.893 22.598 69.469 27.148 69.469 31.034L65.885 34.734L66.621 35.25L65.291 36.334V47.724C67.691 47.256 70.261 48.303 70.852 51.268L73.677 66.068C71.251 69.464 68.061 70.863 63.762 69.372Z" fill="#EA4B12"/>
</svg>
