<svg width="100" height="100" viewBox="0 0 100 100" fill="none" xmlns="http://www.w3.org/2000/svg">
<path d="M37.816 32.936V36.75C37.816 37.894 37.053 38.657 35.908 38.657C34.763 38.657 34 37.894 34 36.75V32.936C34 31.791 34.763 31.029 35.907 31.029C37.051 31.029 37.816 31.791 37.816 32.936Z" fill="#EA4B12"/>
<path d="M51.738 46.286C53.454 48.002 53.454 50.863 51.738 52.579C50.975 53.342 49.831 53.914 48.686 53.914C48.4634 53.9172 48.2408 53.9092 48.019 53.89C47.7884 53.8742 47.5623 53.818 47.351 53.724V55.824C48.496 55.824 49.258 56.587 49.258 57.732C49.258 58.877 48.496 59.639 47.351 59.639H43.537C42.393 59.639 41.63 58.876 41.63 57.732C41.63 56.588 42.393 55.824 43.537 55.824V53.724C43.156 53.914 42.583 53.914 42.202 53.914C41.6309 53.9198 41.064 53.8145 40.533 53.604C39.9917 53.3871 39.5157 53.034 39.151 52.579C37.434 50.863 37.434 48.002 39.151 46.286L44.109 41.136C44.872 40.374 46.209 40.374 46.779 41.136L51.738 46.286Z" fill="#EA4B12"/>
<path d="M56.887 63.45V67.264C56.887 68.409 56.124 69.171 54.98 69.171C53.836 69.171 53.073 68.409 53.073 67.264V63.45C53.073 62.306 53.836 61.543 54.98 61.543C56.124 61.543 56.887 62.306 56.887 63.45Z" fill="#EA4B12"/>
<path d="M86.6 6.40002H13.3C11.4435 6.40002 9.66299 7.13752 8.35024 8.45028C7.03749 9.76303 6.29999 11.5435 6.29999 13.4V86.7C6.29999 88.5565 7.03749 90.337 8.35024 91.6498C9.66299 92.9625 11.4435 93.7 13.3 93.7H86.6C88.4565 93.7 90.237 92.9625 91.5497 91.6498C92.8625 90.337 93.6 88.5565 93.6 86.7V13.4C93.6 11.5435 92.8625 9.76303 91.5497 8.45028C90.237 7.13752 88.4565 6.40002 86.6 6.40002ZM64.516 67.264C64.516 72.604 60.316 76.8 54.98 76.8H35.908C30.568 76.8 26.373 72.6 26.373 67.264V32.936C26.373 27.596 30.568 23.4 35.908 23.4H54.98C60.32 23.4 64.516 27.6 64.516 32.936V67.264ZM80.154 49.146L68.33 68.79V30.838L76.912 35.987C81.489 38.657 82.824 44.569 80.154 49.146Z" fill="#EA4B12"/>
</svg>
