<svg width="165" height="145" viewBox="0 0 165 145" fill="none" xmlns="http://www.w3.org/2000/svg">
<path d="M84.2322 20.7953C79.7205 20.5525 75.1282 21.2808 70.8179 23.1014C59.2969 27.8754 51.7236 39.2439 51.7236 51.7858H72.3486C72.3486 47.5782 74.8462 43.8157 78.7134 42.1974C82.5806 40.6195 86.9714 41.4691 89.9524 44.463C92.9333 47.4568 93.7793 51.8667 92.2082 55.7506C90.5969 59.6346 86.8506 62.1429 82.6611 62.1429C76.9812 62.1429 72.3486 66.7956 72.3486 72.5001V93.2144H92.9736V80.9962C101.071 78.0832 107.838 71.9337 111.262 63.6803C116.016 52.1095 113.357 38.6775 104.535 29.8173C99.0161 24.2746 91.7248 21.1594 84.2322 20.7953ZM82.6611 103.572C76.9812 103.572 72.3486 108.224 72.3486 113.929C72.3486 119.633 76.9812 124.286 82.6611 124.286C88.3411 124.286 92.9736 119.633 92.9736 113.929C92.9736 108.224 88.3411 103.572 82.6611 103.572Z" fill="#D5150B"/>
<path d="M123.75 0C121.011 0 118.392 1.09236 116.459 3.03432C112.43 7.08008 112.43 13.6342 116.459 17.68L129.792 31.0714H120.084C123.629 37.0996 125.522 43.9369 125.563 50.8552C125.522 51.1788 125.482 51.4621 125.442 51.7857H129.792L125.039 56.5192C123.871 64.368 120.286 71.6908 114.807 77.5977C115.25 78.4068 115.774 79.135 116.459 79.8228C120.487 83.8686 127.013 83.8686 131.041 79.8228L161.979 48.7514C166.007 44.7056 166.007 38.1515 161.979 34.1058L131.041 3.03432C129.108 1.09236 126.489 0 123.75 0ZM41.25 62.1429C38.5913 62.1429 35.9729 63.1543 33.9587 65.1772L3.02124 96.2486C-1.00708 100.294 -1.00708 106.848 3.02124 110.894L33.9587 141.966C35.8923 143.908 38.5107 145 41.25 145C43.9893 145 46.6077 143.908 48.5413 141.966C52.5696 137.92 52.5696 131.366 48.5413 127.32L35.2075 113.929H61.875V93.2143H35.2075L48.5413 79.8228C49.5483 78.8114 50.3137 77.5977 50.7971 76.303C47.2925 72.1763 44.6338 67.4428 43.0225 62.3047C42.4182 62.1833 41.8543 62.1429 41.25 62.1429ZM103.125 93.2143V113.929H113.438C119.117 113.929 123.75 109.276 123.75 103.571C123.75 97.8669 119.117 93.2143 113.438 93.2143H103.125Z" fill="#EA4B12"/>
</svg>
