<svg width="100" height="100" viewBox="0 0 100 100" fill="none" xmlns="http://www.w3.org/2000/svg">
<path d="M86.6 6.40002H13.3C11.4435 6.40002 9.66299 7.13752 8.35024 8.45028C7.03749 9.76303 6.29999 11.5435 6.29999 13.4V86.7C6.29999 88.5565 7.03749 90.337 8.35024 91.6498C9.66299 92.9625 11.4435 93.7 13.3 93.7H86.6C88.4565 93.7 90.237 92.9625 91.5497 91.6498C92.8625 90.337 93.6 88.5565 93.6 86.7V13.4C93.6 11.5435 92.8625 9.76303 91.5497 8.45028C90.237 7.13752 88.4565 6.40002 86.6 6.40002ZM76.989 46.559L66.806 56.485C66.4574 56.8253 66.1968 57.2452 66.0465 57.7086C65.8961 58.172 65.8606 58.6649 65.943 59.145L68.343 73.161C68.764 75.616 66.187 77.487 63.983 76.329L51.4 69.712C50.9681 69.4854 50.4877 69.367 50 69.367C49.5123 69.367 49.0318 69.4854 48.6 69.712L36.016 76.329C33.811 77.488 31.234 75.616 31.656 73.161L34.056 59.145C34.1388 58.6648 34.1035 58.1716 33.9529 57.7082C33.8024 57.2447 33.5412 56.8249 33.192 56.485L23.012 46.559C21.229 44.821 22.212 41.792 24.678 41.435L38.751 39.39C39.2332 39.32 39.6912 39.1338 40.0854 38.8474C40.4797 38.561 40.7983 38.183 41.014 37.746L47.307 24.994C48.407 22.761 51.593 22.761 52.695 24.994L58.988 37.746C59.2036 38.183 59.5223 38.561 59.9165 38.8474C60.3108 39.1338 60.7688 39.32 61.251 39.39L75.324 41.435C77.789 41.793 78.772 44.822 76.989 46.559Z" fill="#EA4B12"/>
</svg>
