<svg width="100" height="100" viewBox="0 0 100 100" fill="none" xmlns="http://www.w3.org/2000/svg">
<path d="M47.9179 50H22.578M21.8598 53.3216L17.6733 65.8275C15.3803 72.6766 14.2339 76.1012 15.0566 78.21C15.7711 80.0416 17.3056 81.43 19.1992 81.9587C21.3796 82.5671 24.673 81.085 31.2596 78.1212L73.4863 59.1191C79.9154 56.2258 83.13 54.7796 84.1233 52.77C84.9867 51.0241 84.9867 48.9754 84.1233 47.2296C83.13 45.2204 79.9154 43.7737 73.4863 40.8806L31.1868 21.8459C24.62 18.8909 21.3366 17.4134 19.1583 18.0195C17.2665 18.5459 15.7322 19.9306 15.0152 21.7587C14.1896 23.8636 15.3238 27.2809 17.5923 34.1153L21.8679 46.9971C22.2575 48.1708 22.4523 48.7579 22.5292 49.3579C22.5974 49.8908 22.5967 50.43 22.5271 50.9625C22.4487 51.5625 22.2524 52.1487 21.8598 53.3216Z" stroke="#EA4B12" stroke-width="3" stroke-linecap="round" stroke-linejoin="round"/>
</svg>
