<svg width="100" height="100" viewBox="0 0 100 100" fill="none" xmlns="http://www.w3.org/2000/svg">
<path d="M86.6 6.40002H13.3C11.4435 6.40002 9.66299 7.13752 8.35024 8.45028C7.03749 9.76303 6.29999 11.5435 6.29999 13.4V86.7C6.29999 88.5565 7.03749 90.337 8.35024 91.6498C9.66299 92.9625 11.4435 93.7 13.3 93.7H86.6C88.4565 93.7 90.237 92.9625 91.5497 91.6498C92.8625 90.337 93.6 88.5565 93.6 86.7V13.4C93.6 11.5435 92.8625 9.76303 91.5497 8.45028C90.237 7.13752 88.4565 6.40002 86.6 6.40002ZM46.663 76.7L25.721 69.9C25.0234 69.7002 24.4098 69.2787 23.973 68.6992C23.5362 68.1197 23.3 67.4137 23.3 66.688V26.638C23.2996 26.1213 23.4192 25.6115 23.6494 25.1489C23.8796 24.6863 24.2141 24.2834 24.6266 23.9721C25.039 23.6608 25.5181 23.4495 26.0261 23.3549C26.5341 23.2604 27.0571 23.285 27.554 23.427L46.663 29.975V76.7ZM76.7 66.688C76.7 67.4137 76.4638 68.1197 76.027 68.6992C75.5902 69.2787 74.9766 69.7002 74.279 69.9L53.337 76.7V29.975L72.446 23.428C72.9428 23.2858 73.4658 23.261 73.9738 23.3554C74.4818 23.4499 74.9609 23.6611 75.3734 23.9723C75.7859 24.2835 76.1204 24.6863 76.3506 25.1489C76.5808 25.6115 76.7004 26.1213 76.7 26.638V66.688Z" fill="#EA4B12"/>
</svg>
