<svg width="100" height="100" viewBox="0 0 100 100" fill="none" xmlns="http://www.w3.org/2000/svg">
<path d="M86.6 6.40002H13.3C11.4435 6.40002 9.66299 7.13752 8.35024 8.45028C7.03749 9.76303 6.29999 11.5435 6.29999 13.4V86.7C6.29999 88.5565 7.03749 90.337 8.35024 91.6498C9.66299 92.9625 11.4435 93.7 13.3 93.7H86.6C88.4565 93.7 90.237 92.9625 91.5497 91.6498C92.8625 90.337 93.6 88.5565 93.6 86.7V13.4C93.6 11.5435 92.8625 9.76303 91.5497 8.45028C90.237 7.13752 88.4565 6.40002 86.6 6.40002ZM38.219 73.462C38.2187 74.3472 37.867 75.1961 37.241 75.822C36.6151 76.448 35.7662 76.7998 34.881 76.8H31.544C30.6588 76.7998 29.8099 76.448 29.184 75.822C28.558 75.1961 28.2063 74.3472 28.206 73.462V41.756C28.2063 40.8709 28.558 40.0221 29.184 39.3963C29.81 38.7706 30.6589 38.419 31.544 38.419H34.881C35.7661 38.419 36.615 38.7706 37.241 39.3963C37.8669 40.0221 38.2187 40.8709 38.219 41.756V73.462ZM54.906 73.462C54.906 74.3471 54.5544 75.196 53.9287 75.822C53.3029 76.448 52.4541 76.7998 51.569 76.8H48.231C47.3459 76.7998 46.4971 76.448 45.8713 75.822C45.2455 75.196 44.894 74.3471 44.894 73.462V26.738C44.894 25.8529 45.2455 25.004 45.8713 24.3781C46.4971 23.7521 47.3459 23.4003 48.231 23.4H51.569C52.4541 23.4003 53.3029 23.7521 53.9287 24.3781C54.5544 25.004 54.906 25.8529 54.906 26.738V73.462ZM71.594 73.462C71.5937 74.3472 71.242 75.1961 70.616 75.822C69.9901 76.448 69.1412 76.7998 68.256 76.8H64.919C64.0338 76.7998 63.1849 76.448 62.559 75.822C61.933 75.1961 61.5812 74.3472 61.581 73.462V53.438C61.5812 52.5528 61.933 51.7039 62.559 51.078C63.1849 50.4521 64.0338 50.1003 64.919 50.1H68.256C69.1412 50.1003 69.9901 50.4521 70.616 51.078C71.242 51.7039 71.5937 52.5528 71.594 53.438V73.462Z" fill="#EA4B12"/>
</svg>
