<svg width="100" height="100" viewBox="0 0 100 100" fill="none" xmlns="http://www.w3.org/2000/svg">
<path d="M50.668 63.442C50.6633 63.971 50.4511 64.477 50.077 64.851C49.703 65.2251 49.197 65.4373 48.668 65.442H37.977C37.4456 65.442 36.9361 65.2309 36.5603 64.8552C36.1846 64.4795 35.9735 63.9699 35.9735 63.4385C35.9735 62.9071 36.1846 62.3975 36.5603 62.0218C36.9361 61.6461 37.4456 61.435 37.977 61.435H48.664C49.1949 61.4387 49.7029 61.6514 50.0781 62.0271C50.4532 62.4028 50.6651 62.9111 50.668 63.442Z" fill="#EA4B12"/>
<path d="M56.011 52.755C56.0061 53.2839 55.7938 53.7897 55.4198 54.1637C55.0458 54.5378 54.5399 54.7501 54.011 54.755H37.977C37.4455 54.755 36.9358 54.5439 36.56 54.1681C36.1842 53.7922 35.973 53.2825 35.973 52.751C35.973 52.2195 36.1842 51.7098 36.56 51.334C36.9358 50.9581 37.4455 50.747 37.977 50.747H54.007C54.538 50.7509 55.046 50.9639 55.4211 51.3397C55.7962 51.7156 56.0081 52.224 56.011 52.755Z" fill="#EA4B12"/>
<path d="M86.6 6.40002H13.3C11.4435 6.40002 9.66306 7.13752 8.3503 8.45028C7.03755 9.76303 6.30005 11.5435 6.30005 13.4V86.7C6.30005 88.5565 7.03755 90.337 8.3503 91.6498C9.66306 92.9625 11.4435 93.7 13.3 93.7H86.6C88.4566 93.7 90.237 92.9625 91.5498 91.6498C92.8625 90.337 93.6 88.5565 93.6 86.7V13.4C93.6 11.5435 92.8625 9.76303 91.5498 8.45028C90.237 7.13752 88.4566 6.40002 86.6 6.40002ZM57.159 25.105C57.159 23.582 59.059 22.834 60.152 23.929C64.106 27.883 70.998 34.856 74.846 38.729C75.914 39.798 75.113 41.588 73.59 41.588C70.571 41.588 67.044 41.588 64.506 41.561C60.472 41.561 57.159 38.328 57.159 34.428V25.105ZM75.381 61.919C75.381 71.457 68.728 76.8 60.5 76.8H39.5C31.272 76.8 24.619 71.457 24.619 61.919V38.248C24.619 28.71 31.272 23.367 39.5 23.367H50.828C51.536 23.3689 52.2144 23.6508 52.715 24.1513C53.2157 24.6518 53.4979 25.3301 53.5 26.038V33.759C53.5043 36.8046 54.7159 39.7243 56.8694 41.8779C59.0229 44.0316 61.9424 45.2435 64.988 45.248H72.709C73.417 45.2499 74.0954 45.5318 74.596 46.0323C75.0967 46.5328 75.3789 47.2111 75.381 47.919V61.919Z" fill="#EA4B12"/>
</svg>
