<svg width="100" height="100" viewBox="0 0 100 100" fill="none" xmlns="http://www.w3.org/2000/svg">
<path d="M40.458 32.808C40.4583 32.3018 40.6595 31.8165 41.0175 31.4588C41.3755 31.101 41.8609 30.9 42.367 30.9H57.633C57.8873 30.8942 58.1402 30.9392 58.3769 31.0325C58.6135 31.1258 58.8291 31.2655 59.011 31.4432C59.1929 31.621 59.3375 31.8334 59.4362 32.0679C59.5349 32.3023 59.5857 32.5541 59.5857 32.8085C59.5857 33.0628 59.5349 33.3146 59.4362 33.5491C59.3375 33.7835 59.1929 33.9959 59.011 34.1737C58.8291 34.3515 58.6135 34.4911 58.3769 34.5844C58.1402 34.6777 57.8873 34.7228 57.633 34.717H42.367C42.1163 34.717 41.8681 34.6676 41.6365 34.5717C41.4049 34.4757 41.1944 34.3351 41.0171 34.1578C40.8399 33.9806 40.6993 33.7701 40.6033 33.5385C40.5074 33.3069 40.458 33.0587 40.458 32.808Z" fill="#EA4B12"/>
<path d="M67.175 34.717H65.267C64.7609 34.717 64.2755 34.918 63.9175 35.2758C63.5595 35.6335 63.3583 36.1189 63.358 36.625C63.358 37.131 63.157 37.6163 62.7991 37.9741C62.4413 38.332 61.956 38.533 61.45 38.533H38.55C38.044 38.5327 37.5589 38.3316 37.2011 37.9738C36.8434 37.6161 36.6423 37.1309 36.642 36.625C36.6417 36.1189 36.4405 35.6335 36.0825 35.2758C35.7245 34.918 35.2391 34.717 34.733 34.717H32.825C32.319 34.717 31.8336 34.918 31.4758 35.2758C31.118 35.6336 30.917 36.1189 30.917 36.625V70.975C30.917 71.481 31.118 71.9663 31.4758 72.3241C31.8336 72.682 32.319 72.883 32.825 72.883H67.175C67.681 72.883 68.1663 72.682 68.5242 72.3241C68.882 71.9663 69.083 71.481 69.083 70.975V36.625C69.083 36.1189 68.882 35.6336 68.5242 35.2758C68.1663 34.918 67.681 34.717 67.175 34.717ZM39.9 64.691C39.5878 65.0031 39.1771 65.1973 38.7378 65.2405C38.2985 65.2837 37.8578 65.1733 37.4908 64.928C37.1238 64.6827 36.8532 64.3177 36.7251 63.8953C36.597 63.4728 36.6193 63.0191 36.7883 62.6112C36.9573 62.2034 37.2625 61.8668 37.6518 61.6588C38.0412 61.4508 38.4906 61.3842 38.9235 61.4704C39.3564 61.5566 39.7461 61.7902 40.0261 62.1315C40.3061 62.4727 40.4591 62.9005 40.459 63.342C40.4594 63.5926 40.4102 63.8408 40.3143 64.0723C40.2183 64.3038 40.0775 64.5141 39.9 64.691ZM39.9 57.058C39.5878 57.3701 39.1772 57.5642 38.7379 57.6075C38.2986 57.6507 37.858 57.5403 37.491 57.2951C37.124 57.0499 36.8533 56.685 36.7252 56.2626C36.597 55.8403 36.6193 55.3865 36.7881 54.9787C36.957 54.5709 37.262 54.2343 37.6513 54.0261C38.0405 53.818 38.4899 53.7512 38.9228 53.8372C39.3557 53.9232 39.7454 54.1567 40.0255 54.4978C40.3056 54.8389 40.4588 55.2666 40.459 55.708C40.4595 55.9588 40.4104 56.2072 40.3145 56.4389C40.2185 56.6706 40.0776 56.881 39.9 57.058ZM39.9 49.424C39.5878 49.7361 39.1771 49.9303 38.7378 49.9735C38.2985 50.0167 37.8578 49.9063 37.4908 49.661C37.1238 49.4157 36.8532 49.0507 36.7251 48.6283C36.597 48.2058 36.6193 47.7521 36.7883 47.3442C36.9573 46.9364 37.2625 46.5998 37.6518 46.3918C38.0412 46.1838 38.4906 46.1172 38.9235 46.2034C39.3564 46.2896 39.7461 46.5232 40.0261 46.8645C40.3061 47.2057 40.4591 47.6335 40.459 48.075C40.4594 48.3256 40.4102 48.5738 40.3143 48.8053C40.2183 49.0368 40.0775 49.2471 39.9 49.424ZM62.8 64.691C62.6231 64.8685 62.4129 65.0093 62.1813 65.1052C61.9498 65.2012 61.7016 65.2504 61.451 65.25H46.183C45.6844 65.2386 45.2101 65.0325 44.8615 64.6758C44.5129 64.3191 44.3177 63.8402 44.3177 63.3415C44.3177 62.8427 44.5129 62.3638 44.8615 62.0072C45.2101 61.6505 45.6844 61.4444 46.183 61.433H61.45C61.8276 61.4326 62.1968 61.5444 62.5109 61.754C62.825 61.9636 63.0698 62.2617 63.2143 62.6106C63.3589 62.9594 63.3967 63.3433 63.3229 63.7137C63.2492 64.084 63.0672 64.4241 62.8 64.691ZM62.8 57.058C62.6231 57.2355 62.4129 57.3763 62.1813 57.4722C61.9498 57.5682 61.7016 57.6174 61.451 57.617H46.183C45.6844 57.6056 45.2101 57.3995 44.8615 57.0428C44.5129 56.6861 44.3177 56.2072 44.3177 55.7085C44.3177 55.2097 44.5129 54.7308 44.8615 54.3741C45.2101 54.0175 45.6844 53.8114 46.183 53.8H61.45C61.8276 53.7996 62.1968 53.9114 62.5109 54.121C62.825 54.3306 63.0698 54.6287 63.2143 54.9776C63.3589 55.3264 63.3967 55.7103 63.3229 56.0807C63.2492 56.451 63.0672 56.7911 62.8 57.058ZM62.8 49.424C62.6231 49.6015 62.4129 49.7423 62.1813 49.8382C61.9498 49.9342 61.7016 49.9834 61.451 49.983H46.183C45.677 49.983 45.1917 49.782 44.8338 49.4241C44.476 49.0663 44.275 48.581 44.275 48.075C44.275 47.5689 44.476 47.0836 44.8338 46.7258C45.1917 46.368 45.677 46.167 46.183 46.167H61.45C61.8274 46.1668 62.1964 46.2786 62.5102 46.4882C62.8241 46.6978 63.0688 46.9958 63.2133 47.3444C63.3578 47.693 63.3956 48.0767 63.3221 48.4469C63.2485 48.817 63.0668 49.1571 62.8 49.424Z" fill="#EA4B12"/>
<path d="M86.6 6.40002H13.3C11.4435 6.40002 9.663 7.13752 8.35024 8.45028C7.03749 9.76303 6.29999 11.5435 6.29999 13.4V86.7C6.29999 88.5565 7.03749 90.337 8.35024 91.6498C9.663 92.9625 11.4435 93.7 13.3 93.7H86.6C88.4565 93.7 90.237 92.9625 91.5497 91.6498C92.8625 90.337 93.6 88.5565 93.6 86.7V13.4C93.6 11.5435 92.8625 9.76303 91.5497 8.45028C90.237 7.13752 88.4565 6.40002 86.6 6.40002ZM72.9 74.792C72.9 75.2981 72.699 75.7834 72.3411 76.1412C71.9833 76.499 71.498 76.7 70.992 76.7H29.008C28.502 76.7 28.0166 76.499 27.6588 76.1412C27.301 75.7834 27.1 75.2981 27.1 74.792V32.808C27.1 32.302 27.301 31.8167 27.6588 31.4589C28.0166 31.101 28.502 30.9 29.008 30.9H34.733C35.2391 30.9 35.7245 30.699 36.0825 30.3412C36.4405 29.9835 36.6417 29.4982 36.642 28.992C36.642 28.4859 36.843 28.0005 37.2008 27.6425C37.5586 27.2845 38.0439 27.0833 38.55 27.083H46.183C46.6891 27.083 47.1745 26.882 47.5325 26.5242C47.8905 26.1665 48.0917 25.6812 48.092 25.175C48.092 24.669 48.293 24.1837 48.6508 23.8259C49.0086 23.468 49.494 23.267 50 23.267C50.506 23.267 50.9913 23.468 51.3491 23.8259C51.707 24.1837 51.908 24.669 51.908 25.175C51.9083 25.6812 52.1095 26.1665 52.4675 26.5242C52.8255 26.882 53.3109 27.083 53.817 27.083H61.45C61.9561 27.0833 62.4414 27.2845 62.7992 27.6425C63.157 28.0005 63.358 28.4859 63.358 28.992C63.3583 29.4982 63.5595 29.9835 63.9175 30.3412C64.2755 30.699 64.7609 30.9 65.267 30.9H70.992C71.498 30.9 71.9833 31.101 72.3411 31.4589C72.699 31.8167 72.9 32.302 72.9 32.808V74.792Z" fill="#EA4B12"/>
</svg>
