<svg width="215" height="300" viewBox="0 0 215 300" fill="none" xmlns="http://www.w3.org/2000/svg">
<path fill-rule="evenodd" clip-rule="evenodd" d="M8.37662 0H206.623C211.25 0 215 3.74831 215 8.37209V291.628C215 296.252 211.25 300 206.623 300H8.37663C3.75035 300 0 296.252 0 291.628V8.37209C0 3.74831 3.75034 0 8.37662 0ZM205.227 11.1628H9.77273V288.837H205.227V11.1628Z" fill="#040404"/>
<path d="M192.662 150C192.662 219.357 154.534 275.581 107.5 275.581C60.4661 275.581 22.3377 219.357 22.3377 150C22.3377 80.6433 60.4661 24.4186 107.5 24.4186C154.534 24.4186 192.662 80.6433 192.662 150Z" fill="#040404"/>
<path fill-rule="evenodd" clip-rule="evenodd" d="M9.77273 11.1628H205.227V288.837H9.77273V11.1628ZM107.5 275.581C154.534 275.581 192.662 219.357 192.662 150C192.662 80.6433 154.534 24.4186 107.5 24.4186C60.4661 24.4186 22.3377 80.6433 22.3377 150C22.3377 219.357 60.4661 275.581 107.5 275.581Z" fill="black" fill-opacity="0.75"/>
<path d="M143.611 63.3005C143.306 62.9961 143.231 62.5309 143.423 62.1458L143.726 61.5405C143.774 61.4444 143.837 61.3566 143.913 61.2806L144.204 60.9904C144.391 60.803 144.646 60.6977 144.911 60.6977H145.893H147.987H150.779H151.477H153.571H154.033C154.189 60.6977 154.342 60.6616 154.48 60.5922L155.454 60.1055C155.593 60.0361 155.746 60 155.901 60H157.76H158.742C159.007 60 159.261 60.1053 159.449 60.2927L159.561 60.4047C159.748 60.5923 159.854 60.8467 159.854 61.112V61.6787C159.854 61.944 159.748 62.1984 159.561 62.3859L159.156 62.7907L158.458 63.4884L157.76 64.186L157.062 64.8837L156.478 65.4667C156.402 65.5427 156.339 65.6304 156.291 65.7266L155.666 66.9767L155.073 68.1609C155.004 68.2998 154.967 68.453 154.967 68.6083V69.7674V70.4651V71.8605V72.5581V73.9535V75.3488V75.8103C154.967 75.9656 155.004 76.1188 155.073 76.2577L155.56 77.2306C155.629 77.3695 155.666 77.5227 155.666 77.678V77.7252C155.666 77.9905 155.771 78.2449 155.959 78.4325L157.062 79.5349L157.76 80.2326L158.863 81.335C159.05 81.5225 159.156 81.777 159.156 82.0423V82.3256V83.3066C159.156 83.5719 159.05 83.8263 158.863 84.0139L158.751 84.1259C158.563 84.3133 158.309 84.4186 158.044 84.4186H157.76H156.6C156.444 84.4186 156.291 84.3825 156.153 84.3131L155.179 83.8264C155.04 83.757 154.887 83.7209 154.732 83.7209H153.571H152.873H152.589C152.324 83.7209 152.07 83.8262 151.882 84.0136L151.592 84.3039C151.516 84.3799 151.428 84.4431 151.332 84.4911L150.081 85.1163L148.83 85.7414C148.734 85.7895 148.646 85.8527 148.57 85.9287L147.987 86.5116L147.536 86.9626C147.378 87.1206 147.163 87.2093 146.94 87.2093V87.2093C146.716 87.2093 146.502 87.1206 146.344 86.9626L145.893 86.5116L145.488 86.1069C145.3 85.9193 145.195 85.6649 145.195 85.3996V85.1163V84.4186V83.7209V83.4376C145.195 83.1723 145.3 82.9179 145.488 82.7303L145.893 82.3256L146.591 81.6279L146.996 81.2232C147.183 81.0356 147.289 80.7812 147.289 80.5159V79.5349V78.8372V77.4419V76.7442V75.3488V68.3721V66.9767V66.6934C147.289 66.4281 147.183 66.1737 146.996 65.9861L146.591 65.5814L145.893 64.8837L145.442 64.4328C145.284 64.2748 145.069 64.186 144.846 64.186V64.186C144.622 64.186 144.408 64.0973 144.25 63.9393L143.799 63.4884L143.611 63.3005Z" fill="#E2E6EE" stroke="#040404" stroke-width="1.1"/>
<path d="M91.1673 61.4625C90.9186 61.8353 90.9484 62.3281 91.2402 62.6684L94.935 66.9767L99.2048 68.196L99.3985 68.2513C99.668 68.3283 99.8928 68.5148 100.018 68.7655L101.916 72.5581L106.802 83.7209H111.598C111.658 83.7209 111.718 83.7263 111.777 83.737L118.188 84.9021C118.802 85.0136 119.367 84.5421 119.367 83.9182V83.2718C119.367 83.1086 119.327 82.9479 119.251 82.8037L113.123 71.236C113.097 71.1873 113.076 71.1365 113.058 71.0843L111.74 67.1308C111.706 67.0288 111.688 66.9219 111.688 66.8144V63.2051C111.688 62.9398 111.583 62.6853 111.395 62.4978L109.887 60.9904C109.699 60.803 109.445 60.6977 109.18 60.6977H104.708H97.1002C97.0529 60.6977 97.0057 60.6943 96.9589 60.6876L92.7665 60.089C92.3854 60.0346 92.0069 60.2038 91.7933 60.5241L91.1673 61.4625Z" fill="#E2E6EE"/>
<path d="M90.8056 75.2017C90.7666 75.2992 90.7125 75.3899 90.6453 75.4705L87.2565 79.5349L89.3506 85.1163L90.1035 86.6944V86.6944C90.0683 86.577 90.0792 86.4506 90.1341 86.341L90.4976 85.6144C90.6525 85.3047 90.9566 85.0972 91.3014 85.0659L97.9361 84.4631C98.2446 84.435 98.5227 84.2656 98.6891 84.0042L103.312 76.7442L100.9 74.9365C100.659 74.756 100.35 74.6935 100.058 74.7665L99.6248 74.8747C98.8334 75.0725 98.1509 74.2904 98.454 73.533L99.0518 72.0394C99.0991 71.9212 99.1234 71.7951 99.1234 71.6678V69.0698L99.2048 68.196L94.935 66.9767L93.6842 68.227C93.5883 68.3227 93.513 68.4369 93.4627 68.5627L90.8056 75.2017Z" fill="#E2E6EE"/>
<path d="M67.0815 71.7407C67.036 71.8202 67.0017 71.9055 66.9795 71.9943L66.3149 74.6512L69.5625 78.5338L70.1761 78.1249C70.7045 77.7728 71.4231 77.996 71.659 78.5856L77.8969 94.1719C78.065 94.5918 77.9302 95.0723 77.5683 95.3436L75.6396 96.7894C75.4768 96.9114 75.3551 97.0801 75.2907 97.2731L74.8574 98.5725C74.7535 98.8839 74.8091 99.2265 75.0062 99.4891L76.4857 101.461C76.6746 101.712 76.9709 101.86 77.2855 101.86H81.6721L96.3802 102.529C96.7749 102.547 97.1431 102.33 97.3199 101.977L98.1027 100.412C98.2953 100.027 98.2198 99.5621 97.9153 99.2577L92.3212 93.6666C92.2041 93.5496 92.1179 93.4054 92.0703 93.2468L90.1035 86.6944L89.3506 85.1163L87.2565 79.5349L81.7505 66.4653C81.6987 66.3424 81.6721 66.2104 81.6721 66.077V61.8097C81.6721 61.5444 81.5666 61.29 81.379 61.1024L80.5688 60.2927C80.3813 60.1053 80.127 60 79.8619 60H75.3896H71.2013H67.427C67.1619 60 66.9076 60.1053 66.7201 60.2927L64.8009 62.2109C64.4636 62.548 64.4113 63.0763 64.6759 63.4731L65.4695 64.6628C65.5661 64.8076 65.6987 64.9246 65.8544 65.0024L68.8592 66.504C69.3728 66.7607 69.5653 67.3963 69.2803 67.8949L67.0815 71.7407Z" fill="#E2E6EE"/>
<path d="M38.4644 73.0769C38.4171 73.1951 38.3928 73.3212 38.3928 73.4485V76.0465L41.6457 77.9972C41.801 78.0903 41.9788 78.1395 42.16 78.1395H43.2792L45.2091 76.2107C45.6553 75.7647 46.3979 75.8383 46.7479 76.3631L51.6109 83.6536C51.6408 83.6984 51.667 83.7456 51.6893 83.7946L55.0947 91.2824C55.1288 91.3574 55.1535 91.4364 55.1683 91.5174L56.526 98.981C56.5368 99.0401 56.5422 99.1 56.5422 99.16V103.539C56.5422 103.804 56.6476 104.059 56.8353 104.246L58.3435 105.754C58.531 105.941 58.7853 106.047 59.0504 106.047H60.2769C60.5652 106.047 60.8394 105.922 61.0293 105.705L65.4381 100.669C65.5551 100.536 65.7058 100.436 65.8744 100.379L67.711 99.7674L69.3308 99.2278C69.6294 99.1283 69.8638 98.894 69.9634 98.5955L70.3897 97.3173C70.4631 97.0971 70.4577 96.8583 70.3743 96.6417L67.013 87.907L66.3934 85.4301C66.3424 85.2261 66.357 85.0112 66.4351 84.8159L67.711 81.6279L68.9883 79.0747C69.0662 78.9191 69.1833 78.7865 69.3281 78.6899L69.5625 78.5338L66.3149 74.6512L64.4447 75.2742C64.2974 75.3233 64.1636 75.406 64.0538 75.5157L63.0436 76.5253C62.58 76.9887 61.8035 76.8882 61.4731 76.3221L52.6433 61.1936C52.4641 60.8865 52.1352 60.6977 51.7797 60.6977H49.5617H46.0714H43.2792H37.3299C37.1136 60.6977 36.9032 60.7678 36.7301 60.8975L34.9619 62.223C34.537 62.5415 34.4351 63.1364 34.7297 63.5781L35.3861 64.5622C35.5242 64.7691 35.7343 64.9171 35.9756 64.9774L40.0732 66.0013C40.6613 66.1482 40.9845 66.7803 40.7592 67.343L38.4644 73.0769Z" fill="#E2E6EE"/>
<path d="M23.7338 100.465L22.7383 101.46C22.4897 101.708 22.3898 102.069 22.4751 102.41L22.8821 104.037C22.9759 104.412 23.2773 104.699 23.6562 104.775L26.0877 105.261C26.3666 105.317 26.656 105.251 26.8835 105.081L29.1884 103.353C29.2743 103.289 29.3701 103.239 29.4721 103.205L33.3526 101.912C33.4545 101.878 33.5612 101.86 33.6687 101.86H38.473C38.8517 101.86 39.1979 101.647 39.3673 101.308L40.2103 99.6228C40.3799 99.2839 40.3433 98.8783 40.1159 98.5752L38.593 96.5458C38.4631 96.3727 38.3928 96.1621 38.3928 95.9456V91.5811C38.3928 91.4583 38.4155 91.3366 38.4596 91.222L41.8831 82.3256L43.2792 78.1395H42.16C41.9788 78.1395 41.801 78.0903 41.6457 77.9972L38.3928 76.0465L36.5197 77.2946C36.3749 77.3911 36.2577 77.5237 36.1799 77.6794L34.9026 80.2326L29.3182 93.4884L27.9947 96.1339C27.9466 96.2301 27.8833 96.3178 27.8073 96.3938L26.526 97.6744L25.1299 99.0698L23.7338 100.465Z" fill="#E2E6EE"/>
<path d="M38.3928 76.0465L36.5197 77.2946C36.3749 77.3911 36.2577 77.5237 36.1799 77.6794L34.9026 80.2326L29.3182 93.4884L27.9947 96.1339C27.9466 96.2301 27.8833 96.3178 27.8073 96.3938L26.526 97.6744L25.1299 99.0698L23.7338 100.465L22.7383 101.46C22.4897 101.708 22.3898 102.069 22.4751 102.41L22.8821 104.037C22.9759 104.412 23.2773 104.699 23.6562 104.775L26.0877 105.261C26.3666 105.317 26.656 105.251 26.8835 105.081L29.1884 103.353C29.2743 103.289 29.3701 103.239 29.4721 103.205L33.3526 101.912C33.4545 101.878 33.5612 101.86 33.6687 101.86H38.473C38.8517 101.86 39.1979 101.647 39.3673 101.308L40.2103 99.6228C40.3799 99.2839 40.3433 98.8783 40.1159 98.5752L38.593 96.5458C38.4631 96.3727 38.3928 96.1621 38.3928 95.9456V91.5811C38.3928 91.4583 38.4155 91.3366 38.4596 91.222L41.8831 82.3256L43.2792 78.1395M38.3928 76.0465V73.4485C38.3928 73.3212 38.4171 73.1951 38.4644 73.0769L40.7592 67.343C40.9845 66.7803 40.6613 66.1482 40.0732 66.0013L35.9756 64.9774C35.7343 64.9171 35.5242 64.7691 35.3861 64.5622L34.7297 63.5781C34.4351 63.1364 34.537 62.5415 34.9619 62.223L36.7301 60.8975C36.9032 60.7678 37.1136 60.6977 37.3299 60.6977H43.2792H46.0714H49.5617H51.7797C52.1352 60.6977 52.4641 60.8865 52.6433 61.1936L61.4731 76.3221C61.8035 76.8882 62.58 76.9887 63.0436 76.5253L64.0538 75.5157C64.1636 75.406 64.2974 75.3233 64.4447 75.2742L66.3149 74.6512M38.3928 76.0465L41.6457 77.9972C41.801 78.0903 41.9788 78.1395 42.16 78.1395H43.2792M66.3149 74.6512L66.9795 71.9943C67.0017 71.9055 67.036 71.8202 67.0815 71.7407L69.2803 67.8949C69.5653 67.3963 69.3728 66.7607 68.8592 66.504L65.8544 65.0024C65.6987 64.9246 65.5661 64.8076 65.4695 64.6628L64.6759 63.4731C64.4113 63.0763 64.4636 62.548 64.8009 62.2109L66.7201 60.2927C66.9076 60.1053 67.1619 60 67.427 60H71.2013H75.3896H79.8619C80.127 60 80.3813 60.1053 80.5688 60.2927L81.379 61.1024C81.5666 61.29 81.6721 61.5444 81.6721 61.8097V66.077C81.6721 66.2104 81.6987 66.3424 81.7505 66.4653L87.2565 79.5349M66.3149 74.6512L69.5625 78.5338M87.2565 79.5349L90.6453 75.4705C90.7125 75.3899 90.7666 75.2992 90.8056 75.2017L93.4627 68.5627C93.513 68.4369 93.5883 68.3227 93.6842 68.227L94.935 66.9767M87.2565 79.5349L89.3506 85.1163L90.1035 86.6944M94.935 66.9767L91.2402 62.6684C90.9484 62.3281 90.9186 61.8353 91.1673 61.4625L91.7933 60.5241C92.0069 60.2038 92.3854 60.0346 92.7665 60.089L96.9589 60.6876C97.0057 60.6943 97.0529 60.6977 97.1002 60.6977H104.708H109.18C109.445 60.6977 109.699 60.803 109.887 60.9904L111.395 62.4978C111.583 62.6853 111.688 62.9398 111.688 63.2051V66.8144C111.688 66.9219 111.706 67.0288 111.74 67.1308L113.058 71.0843C113.076 71.1365 113.097 71.1873 113.123 71.236L119.251 82.8037C119.327 82.9479 119.367 83.1086 119.367 83.2718V83.9182C119.367 84.5421 118.802 85.0136 118.188 84.9021L111.777 83.737C111.718 83.7263 111.658 83.7209 111.598 83.7209H106.802M94.935 66.9767L99.2048 68.196M106.802 83.7209L101.916 72.5581L100.018 68.7655C99.8928 68.5148 99.668 68.3283 99.3985 68.2513L99.2048 68.196M106.802 83.7209L103.312 76.7442M103.312 76.7442L98.6891 84.0042C98.5227 84.2656 98.2446 84.435 97.9361 84.4631L91.3014 85.0659C90.9566 85.0972 90.6525 85.3047 90.4976 85.6144L90.1341 86.341C90.0792 86.4506 90.0683 86.577 90.1035 86.6944V86.6944M103.312 76.7442L100.9 74.9365C100.659 74.756 100.35 74.6935 100.058 74.7665L99.6248 74.8747C98.8334 75.0725 98.1509 74.2904 98.454 73.533L99.0518 72.0394C99.0991 71.9212 99.1234 71.7951 99.1234 71.6678V69.0698L99.2048 68.196M43.2792 78.1395L45.2091 76.2107C45.6553 75.7647 46.3979 75.8383 46.7479 76.3631L51.6109 83.6536C51.6408 83.6984 51.667 83.7456 51.6893 83.7946L55.0947 91.2824C55.1288 91.3574 55.1535 91.4364 55.1683 91.5174L56.526 98.981C56.5368 99.0401 56.5422 99.1 56.5422 99.16V103.539C56.5422 103.804 56.6476 104.059 56.8353 104.246L58.3435 105.754C58.531 105.941 58.7853 106.047 59.0504 106.047H60.2769C60.5652 106.047 60.8394 105.922 61.0293 105.705L65.4381 100.669C65.5551 100.536 65.7058 100.436 65.8744 100.379L67.711 99.7674L69.3308 99.2278C69.6294 99.1283 69.8638 98.894 69.9634 98.5955L70.3897 97.3173C70.4631 97.0971 70.4577 96.8583 70.3743 96.6417L67.013 87.907L66.3934 85.4301C66.3424 85.2261 66.357 85.0112 66.4351 84.8159L67.711 81.6279L68.9883 79.0747C69.0662 78.9191 69.1833 78.7865 69.3281 78.6899L69.5625 78.5338M69.5625 78.5338L70.1761 78.1249C70.7045 77.7728 71.4231 77.996 71.659 78.5856L77.8969 94.1719C78.065 94.5918 77.9302 95.0723 77.5683 95.3436L75.6396 96.7894C75.4768 96.9114 75.3551 97.0801 75.2907 97.2731L74.8574 98.5725C74.7535 98.8839 74.8091 99.2265 75.0062 99.4891L76.4857 101.461C76.6746 101.712 76.9709 101.86 77.2855 101.86H81.6721L96.3802 102.529C96.7749 102.547 97.1431 102.33 97.3199 101.977L98.1027 100.412C98.2953 100.027 98.2198 99.5621 97.9153 99.2577L92.3212 93.6666C92.2041 93.5496 92.1179 93.4054 92.0703 93.2468L90.1035 86.6944" stroke="#040404" stroke-width="1.1"/>
<path d="M135.633 61.2898C135.494 61.3592 135.341 61.3953 135.186 61.3953H134.026H132.866C132.711 61.3953 132.558 61.3592 132.419 61.2898L131.445 60.8031C131.306 60.7337 131.153 60.6976 130.998 60.6976H129.838H128.442H127.045H125.885C125.73 60.6976 125.577 60.7337 125.438 60.8031L124.253 61.3953L123.002 62.0205C122.906 62.0685 122.818 62.1317 122.742 62.2077L121.461 63.4883L120.232 64.7168C120.122 64.8265 120.039 64.9604 119.99 65.1077L119.367 66.9767L118.72 68.9157C118.686 69.0177 118.669 69.1245 118.669 69.2321V71.1627V73.0934C118.669 73.2009 118.686 73.3078 118.72 73.4098L119.367 75.3488L120.023 77.3147C120.051 77.3991 120.09 77.4793 120.139 77.5533L121.461 79.5348L122.802 81.5455C122.839 81.6003 122.881 81.6513 122.927 81.6979L124.253 83.0232L125.535 84.3039C125.611 84.3798 125.698 84.4431 125.794 84.4911L126.739 84.9629C126.938 85.0623 127.164 85.0926 127.382 85.049L130.439 84.438C130.503 84.4251 130.569 84.4186 130.635 84.4186H132.327C132.525 84.4186 132.717 84.477 132.882 84.5864L134.402 85.5995C134.609 85.7375 134.757 85.9477 134.818 86.189L135.289 88.072C135.372 88.4037 135.619 88.6701 135.943 88.7781L137.362 89.251C137.464 89.285 137.571 89.3023 137.678 89.3023H137.8C138.065 89.3023 138.32 89.197 138.507 89.0096L138.698 88.8187C138.838 88.6791 138.933 88.5013 138.972 88.3076L139.591 85.2134C139.604 85.1488 139.61 85.0831 139.61 85.0172V80.9302V76.9065C139.61 76.799 139.628 76.6921 139.662 76.5901L140.286 74.7186C140.301 74.6737 140.319 74.6299 140.34 74.5875L140.901 73.467C140.97 73.3281 141.006 73.1749 141.006 73.0196V72.9725C141.006 72.7072 140.901 72.4527 140.713 72.2652L140.308 71.8604L139.903 71.4555C139.716 71.268 139.461 71.1627 139.196 71.1627H138.912H138.214H137.516H136.12H133.328H131.396C131.289 71.1627 131.182 71.1801 131.08 71.214L129.364 71.7858C129.216 71.8349 129.082 71.9175 128.973 72.0273L128.688 72.3115C128.53 72.4694 128.442 72.6836 128.442 72.9069V72.9069C128.442 73.1303 128.53 73.3445 128.688 73.5024L129.14 73.9534L129.723 74.5364C129.799 74.6124 129.887 74.6756 129.983 74.7236L131.023 75.2433C131.161 75.3127 131.315 75.3488 131.47 75.3488H131.518C131.783 75.3488 132.037 75.4541 132.225 75.6415L132.63 76.0465L133.035 76.4512C133.222 76.6388 133.328 76.8932 133.328 77.1585V77.4418V77.7251C133.328 77.9904 133.222 78.2449 133.035 78.4324L132.63 78.8372L132.225 79.2421C132.037 79.4296 131.783 79.5348 131.518 79.5348H131.234H130.536H129.554C129.289 79.5348 129.034 79.4296 128.847 79.2421L128.556 78.9519C128.48 78.8759 128.417 78.7882 128.369 78.692L127.816 77.587C127.768 77.4908 127.705 77.4031 127.629 77.3271L127.045 76.7441L126.64 76.3394C126.453 76.1518 126.347 75.8974 126.347 75.6321V75.3488V73.9534V73.2558V71.8604V71.1627V70.1818C126.347 69.9165 126.453 69.662 126.64 69.4745L126.931 69.1845C127.007 69.1085 127.07 69.0207 127.118 68.9246L127.671 67.8195C127.719 67.7234 127.782 67.6356 127.858 67.5596L128.195 67.2234C128.353 67.0654 128.567 66.9767 128.791 66.9767V66.9767C129.014 66.9767 129.228 66.888 129.386 66.73L129.545 66.5717C129.732 66.3843 129.987 66.279 130.252 66.279H131.234H132.216C132.481 66.279 132.735 66.3843 132.923 66.5717L133.328 66.9767L133.733 67.3815C133.921 67.569 134.026 67.8234 134.026 68.0887V68.6554C134.026 68.9207 134.131 69.1751 134.319 69.3627L134.724 69.7674L135.422 70.4651L136.12 71.1627H137.516L138.192 69.1372C138.207 69.0923 138.225 69.0485 138.246 69.0061L139.538 66.4242C139.586 66.328 139.649 66.2403 139.725 66.1643L140.194 65.6961C140.27 65.6201 140.333 65.5323 140.381 65.4362L140.901 64.3972C140.97 64.2583 141.006 64.1051 141.006 63.9498V63.205C141.006 62.9397 140.901 62.6853 140.713 62.4977L140.423 62.2077C140.347 62.1317 140.259 62.0685 140.163 62.0205L139.057 61.4678C138.961 61.4198 138.874 61.3566 138.798 61.2806L138.524 61.0068C138.326 60.8097 138.056 60.7039 137.777 60.7149L136.698 60.7575L135.633 61.2898Z" fill="#E2E6EE"/>
<path d="M136.818 60.6976L136.698 60.7575M136.12 71.1627H133.328H131.396C131.289 71.1627 131.182 71.1801 131.08 71.214L129.364 71.7858C129.216 71.8349 129.082 71.9175 128.973 72.0273L128.688 72.3115C128.53 72.4694 128.442 72.6836 128.442 72.9069V72.9069C128.442 73.1303 128.53 73.3445 128.688 73.5024L129.14 73.9534L129.723 74.5364C129.799 74.6124 129.887 74.6756 129.983 74.7236L131.023 75.2433C131.161 75.3127 131.315 75.3488 131.47 75.3488H131.518C131.783 75.3488 132.037 75.4541 132.225 75.6415L132.63 76.0465L133.035 76.4512C133.222 76.6388 133.328 76.8932 133.328 77.1585V77.4418V77.7251C133.328 77.9904 133.222 78.2449 133.035 78.4324L132.63 78.8372L132.225 79.2421C132.037 79.4296 131.783 79.5348 131.518 79.5348H131.234H130.536H129.554C129.289 79.5348 129.034 79.4296 128.847 79.2421L128.556 78.9519C128.48 78.8759 128.417 78.7882 128.369 78.692L127.816 77.587C127.768 77.4908 127.705 77.4031 127.629 77.3271L127.045 76.7441L126.64 76.3394C126.453 76.1518 126.347 75.8974 126.347 75.6321V75.3488V73.9534V73.2558V71.8604V71.1627V70.1818C126.347 69.9165 126.453 69.662 126.64 69.4745L126.931 69.1845C127.007 69.1085 127.07 69.0207 127.118 68.9246L127.671 67.8195C127.719 67.7234 127.782 67.6356 127.858 67.5596L128.195 67.2234C128.353 67.0654 128.567 66.9767 128.791 66.9767V66.9767C129.014 66.9767 129.228 66.888 129.386 66.73L129.545 66.5717C129.732 66.3843 129.987 66.279 130.252 66.279H131.234H132.216C132.481 66.279 132.735 66.3843 132.923 66.5717L133.328 66.9767L133.733 67.3815C133.921 67.569 134.026 67.8234 134.026 68.0887V68.6554C134.026 68.9207 134.131 69.1751 134.319 69.3627L134.724 69.7674L135.422 70.4651L136.12 71.1627ZM136.12 71.1627H137.516M137.516 71.1627H138.214H138.912H139.196C139.461 71.1627 139.716 71.268 139.903 71.4555L140.308 71.8604L140.713 72.2652C140.901 72.4527 141.006 72.7072 141.006 72.9725V73.0196C141.006 73.1749 140.97 73.3281 140.901 73.467L140.34 74.5875C140.319 74.6299 140.301 74.6737 140.286 74.7186L139.662 76.5901C139.628 76.6921 139.61 76.799 139.61 76.9065V80.9302V85.0172C139.61 85.0831 139.604 85.1488 139.591 85.2134L138.972 88.3076C138.933 88.5013 138.838 88.6791 138.698 88.8187L138.507 89.0096C138.32 89.197 138.065 89.3023 137.8 89.3023H137.678C137.571 89.3023 137.464 89.285 137.362 89.251L135.943 88.7781C135.619 88.6701 135.372 88.4037 135.289 88.072L134.818 86.189C134.757 85.9477 134.609 85.7375 134.402 85.5995L132.882 84.5864C132.717 84.477 132.525 84.4186 132.327 84.4186H130.635C130.569 84.4186 130.503 84.4251 130.439 84.438L127.382 85.049C127.164 85.0926 126.938 85.0623 126.739 84.9629L125.794 84.4911C125.698 84.4431 125.611 84.3798 125.535 84.3039L124.253 83.0232L122.927 81.6979C122.881 81.6513 122.839 81.6003 122.802 81.5455L121.461 79.5348L120.139 77.5533C120.09 77.4793 120.051 77.3991 120.023 77.3147L119.367 75.3488L118.72 73.4098C118.686 73.3078 118.669 73.2009 118.669 73.0934V71.1627V69.2321C118.669 69.1245 118.686 69.0177 118.72 68.9157L119.367 66.9767L119.99 65.1077C120.039 64.9604 120.122 64.8265 120.232 64.7168L121.461 63.4883L122.742 62.2077C122.818 62.1317 122.906 62.0685 123.002 62.0205L124.253 61.3953L125.438 60.8031C125.577 60.7337 125.73 60.6976 125.885 60.6976H127.045H128.442H129.838H130.998C131.153 60.6976 131.306 60.7337 131.445 60.8031L132.419 61.2898C132.558 61.3592 132.711 61.3953 132.866 61.3953H134.026H135.186C135.341 61.3953 135.494 61.3592 135.633 61.2898L136.698 60.7575M137.516 71.1627L138.192 69.1372C138.207 69.0923 138.225 69.0485 138.246 69.0061L139.538 66.4242C139.586 66.328 139.649 66.2403 139.725 66.1643L140.194 65.6961C140.27 65.6201 140.333 65.5323 140.381 65.4362L140.901 64.3972C140.97 64.2583 141.006 64.1051 141.006 63.9498V63.205C141.006 62.9397 140.901 62.6853 140.713 62.4977L140.423 62.2077C140.347 62.1317 140.259 62.0685 140.163 62.0205L139.057 61.4678C138.961 61.4198 138.874 61.3566 138.798 61.2806L138.524 61.0068C138.326 60.8097 138.056 60.7039 137.777 60.7149L136.698 60.7575" stroke="#040404" stroke-width="1.1"/>
<path d="M183.588 60.6976H184.286L184.878 61.8818C184.948 62.0207 184.984 62.1738 184.984 62.3292V62.7907V63.4883V63.7716C184.984 64.0369 184.878 64.2914 184.691 64.4789L184.532 64.6371C184.374 64.795 184.286 65.0092 184.286 65.2325V65.2325C184.286 65.4559 184.197 65.6701 184.039 65.828L183.588 66.279L182.89 66.9767L182.192 67.6744L181.494 68.3721L180.795 69.0697L180.097 69.7674L179.399 70.4651L178.899 70.9648C178.773 71.0915 178.601 71.1627 178.421 71.1627V71.1627C178.165 71.1627 177.931 71.018 177.816 70.7889L177.411 69.9786C177.341 69.8397 177.305 69.6865 177.305 69.5312V68.0887C177.305 67.8234 177.2 67.569 177.012 67.3815L176.607 66.9767L175.909 66.279L175.504 65.8741C175.316 65.6866 175.062 65.5814 174.797 65.5814H174.513H173.353C173.198 65.5814 173.045 65.6175 172.906 65.6868L171.866 66.2065C171.77 66.2545 171.682 66.3178 171.606 66.3937L171.023 66.9767L170.571 67.4278C170.413 67.5857 170.325 67.7999 170.325 68.0232V68.0232C170.325 68.2466 170.236 68.4608 170.078 68.6186L169.92 68.7768C169.732 68.9644 169.627 69.2188 169.627 69.4841V69.7674V70.4651V71.8604V73.0196C169.627 73.1749 169.663 73.3281 169.732 73.467L170.325 74.6511L170.874 75.7484C170.97 75.9419 171.128 76.0974 171.313 76.2092C171.722 76.4561 172.419 76.9489 172.419 77.4418C172.419 78.1395 173.117 78.1395 173.117 78.1395V78.1395C173.117 78.1395 173.117 78.1395 173.815 78.1395C174.22 78.1395 174.625 78.3746 174.894 78.5718C175.108 78.7287 175.36 78.8372 175.625 78.8372H176.607H177.589C177.854 78.8372 178.107 78.9456 178.32 79.1025C178.589 79.2998 178.994 79.5348 179.399 79.5348C180.097 79.5348 182.192 79.5348 182.89 79.5348C183.295 79.5348 183.7 79.2998 183.969 79.1025C184.182 78.9456 184.435 78.8372 184.7 78.8372H186.38H187.54C187.695 78.8372 187.848 78.8011 187.987 78.7317L188.961 78.245C189.1 78.1756 189.253 78.1395 189.408 78.1395H190.852C191.117 78.1395 191.372 78.2448 191.559 78.4322L191.671 78.5442C191.859 78.7318 191.964 78.9862 191.964 79.2515V79.2987C191.964 79.454 191.928 79.6072 191.859 79.7461L191.339 80.785C191.291 80.8812 191.227 80.9689 191.151 81.0449L190.683 81.5132C190.607 81.5891 190.519 81.6524 190.423 81.7004L189.383 82.2201C189.244 82.2894 189.091 82.3255 188.936 82.3255H188.012C187.857 82.3255 187.704 82.3617 187.565 82.431L186.591 82.9177C186.452 82.9871 186.299 83.0232 186.144 83.0232H183.824C183.668 83.0232 183.515 83.0593 183.377 83.1287L182.337 83.6484C182.241 83.6964 182.155 83.7623 182.067 83.8236C181.212 84.4186 178.701 84.4186 178.701 84.4186C178.701 84.4186 178.701 84.4186 178.701 84.4186H175.909H172.419H170.487C170.379 84.4186 170.273 84.4013 170.171 84.3673L168.298 83.7433C168.253 83.7284 168.209 83.7103 168.167 83.6891L165.583 82.3981C165.487 82.35 165.4 82.2868 165.324 82.2108L164.042 80.9302L162.761 79.6496C162.685 79.5736 162.622 79.4858 162.573 79.3897L161.356 76.9554C161.286 76.8165 161.25 76.6633 161.25 76.508V74.6511V71.3251C161.25 71.2176 161.267 71.1107 161.301 71.0087L161.906 69.1968C161.934 69.1125 161.973 69.0322 162.022 68.9583L163.344 66.9767L164.685 64.9661C164.722 64.9113 164.764 64.8602 164.81 64.8137L166.136 63.4883L167.418 62.2077C167.494 62.1317 167.581 62.0685 167.678 62.0205L168.865 61.4271C168.907 61.4059 168.951 61.3878 168.996 61.3729L170.869 60.7489C170.971 60.7149 171.077 60.6976 171.185 60.6976H173.815H175.049C175.156 60.6976 175.263 60.7149 175.365 60.7489L177.151 61.344C177.253 61.378 177.36 61.3953 177.467 61.3953H178.701H179.861C180.017 61.3953 180.17 61.3592 180.308 61.2898L181.282 60.8031C181.421 60.7337 181.574 60.6976 181.729 60.6976H182.89H183.588Z" fill="#E2E6EE"/>
<path d="M184.286 60.6976H183.588H182.89M184.286 60.6976L184.878 61.8818C184.948 62.0207 184.984 62.1738 184.984 62.3292V62.7907V63.4883V63.7716C184.984 64.0369 184.878 64.2914 184.691 64.4789L184.532 64.6371C184.374 64.795 184.286 65.0092 184.286 65.2325V65.2325C184.286 65.4559 184.197 65.6701 184.039 65.828L183.588 66.279L182.89 66.9767L182.192 67.6744L181.494 68.3721L180.795 69.0697L180.097 69.7674L179.399 70.4651L178.899 70.9648C178.773 71.0915 178.601 71.1627 178.421 71.1627V71.1627C178.165 71.1627 177.931 71.018 177.816 70.7889L177.411 69.9786C177.341 69.8397 177.305 69.6865 177.305 69.5312V68.0887C177.305 67.8234 177.2 67.569 177.012 67.3815L176.607 66.9767L175.909 66.279L175.504 65.8741C175.316 65.6866 175.062 65.5814 174.797 65.5814H174.513H173.353C173.198 65.5814 173.045 65.6175 172.906 65.6868L171.866 66.2065C171.77 66.2545 171.682 66.3178 171.606 66.3937L171.023 66.9767L170.571 67.4278C170.413 67.5857 170.325 67.7999 170.325 68.0232V68.0232C170.325 68.2466 170.236 68.4608 170.078 68.6186L169.92 68.7768C169.732 68.9644 169.627 69.2188 169.627 69.4841V69.7674V70.4651V71.8604V73.0196C169.627 73.1749 169.663 73.3281 169.732 73.467L170.325 74.6511L170.874 75.7484C170.97 75.9419 171.128 76.0974 171.313 76.2092C171.722 76.4561 172.419 76.9489 172.419 77.4418C172.419 78.1395 173.117 78.1395 173.117 78.1395V78.1395C173.117 78.1395 173.117 78.1395 173.815 78.1395C174.22 78.1395 174.625 78.3746 174.894 78.5718C175.108 78.7287 175.36 78.8372 175.625 78.8372H176.607H177.589C177.854 78.8372 178.107 78.9456 178.32 79.1025C178.589 79.2998 178.994 79.5348 179.399 79.5348C180.097 79.5348 182.192 79.5348 182.89 79.5348C183.295 79.5348 183.7 79.2998 183.969 79.1025C184.182 78.9456 184.435 78.8372 184.7 78.8372H186.38H187.54C187.695 78.8372 187.848 78.8011 187.987 78.7317L188.961 78.245C189.1 78.1756 189.253 78.1395 189.408 78.1395H190.852C191.117 78.1395 191.372 78.2448 191.559 78.4322L191.671 78.5442C191.859 78.7318 191.964 78.9862 191.964 79.2515V79.2987C191.964 79.454 191.928 79.6072 191.859 79.7461L191.339 80.785C191.291 80.8812 191.227 80.9689 191.151 81.0449L190.683 81.5132C190.607 81.5891 190.519 81.6524 190.423 81.7004L189.383 82.2201C189.244 82.2894 189.091 82.3255 188.936 82.3255H188.012C187.857 82.3255 187.704 82.3617 187.565 82.431L186.591 82.9177C186.452 82.9871 186.299 83.0232 186.144 83.0232H183.824C183.668 83.0232 183.515 83.0593 183.377 83.1287L182.337 83.6484C182.241 83.6964 182.155 83.7623 182.067 83.8236C181.212 84.4186 178.701 84.4186 178.701 84.4186C178.701 84.4186 178.701 84.4186 178.701 84.4186H175.909H172.419H170.487C170.379 84.4186 170.273 84.4013 170.171 84.3673L168.298 83.7433C168.253 83.7284 168.209 83.7103 168.167 83.6891L165.583 82.3981C165.487 82.35 165.4 82.2868 165.324 82.2108L164.042 80.9302L162.761 79.6496C162.685 79.5736 162.622 79.4858 162.573 79.3897L161.356 76.9554C161.286 76.8165 161.25 76.6633 161.25 76.508V74.6511V71.3251C161.25 71.2176 161.267 71.1107 161.301 71.0087L161.906 69.1968C161.934 69.1125 161.973 69.0322 162.022 68.9583L163.344 66.9767L164.685 64.9661C164.722 64.9113 164.764 64.8602 164.81 64.8137L166.136 63.4883L167.418 62.2077C167.494 62.1317 167.581 62.0685 167.678 62.0205L168.865 61.4271C168.907 61.4059 168.951 61.3878 168.996 61.3729L170.869 60.7489C170.971 60.7149 171.077 60.6976 171.185 60.6976H173.815H175.049C175.156 60.6976 175.263 60.7149 175.365 60.7489L177.151 61.344C177.253 61.378 177.36 61.3953 177.467 61.3953H178.701H179.861C180.017 61.3953 180.17 61.3592 180.308 61.2898L181.282 60.8031C181.421 60.7337 181.574 60.6976 181.729 60.6976H182.89M184.286 60.6976H182.89" stroke="#040404" stroke-width="1.1"/>
<path d="M166.136 97.9745V98.7698C166.136 98.9355 166.271 99.0698 166.436 99.0698H168.629C168.794 99.0698 168.929 98.9355 168.929 98.7698V97.6745V95.1838C168.929 95.0181 169.063 94.8838 169.229 94.8838H169.502C169.582 94.8838 169.658 94.9154 169.714 94.9716L170.237 95.4936C170.293 95.5499 170.325 95.6262 170.325 95.7058V98.0722C170.325 98.2379 170.19 98.3722 170.025 98.3722H169.927C169.761 98.3722 169.627 98.5065 169.627 98.6722V98.7698C169.627 98.9355 169.761 99.0698 169.927 99.0698H172.119C172.285 99.0698 172.419 98.9355 172.419 98.7698V96.2791V94.8838V94.3104C172.419 94.2308 172.387 94.1545 172.331 94.0982L171.809 93.5763C171.752 93.52 171.676 93.4884 171.597 93.4884H170.325H169.627H169.229C169.063 93.4884 168.929 93.3541 168.929 93.1884V93.0908C168.929 92.9251 168.794 92.7908 168.629 92.7908H167.657C167.577 92.7908 167.501 92.8224 167.445 92.8786L166.834 93.4884L166.224 94.0982C166.168 94.1545 166.136 94.2308 166.136 94.3104V94.5838C166.136 94.7495 166.271 94.8838 166.436 94.8838H166.534C166.7 94.8838 166.834 95.0181 166.834 95.1838V97.3745C166.834 97.5402 166.7 97.6745 166.534 97.6745H166.436C166.271 97.6745 166.136 97.8088 166.136 97.9745Z" fill="#E2E6EE" stroke="#040404" stroke-width="0.4"/>
<path d="M141.705 92.4907V92.393C141.705 92.2273 141.57 92.093 141.405 92.093H141.131C141.051 92.093 140.975 92.1246 140.919 92.1808L140.396 92.7029C140.34 92.7591 140.264 92.7907 140.184 92.7907H139.735C139.655 92.7907 139.579 92.8223 139.523 92.8785L139 93.4005C138.944 93.4568 138.912 93.5331 138.912 93.6127V93.886C138.912 94.0517 139.047 94.186 139.212 94.186H139.31C139.476 94.186 139.61 94.3204 139.61 94.486V94.8837V98.2478C139.61 98.3274 139.642 98.4037 139.698 98.46L140.221 98.982C140.277 99.0382 140.353 99.0698 140.433 99.0698H141.58C141.66 99.0698 141.736 99.0382 141.792 98.982L142.315 98.46C142.371 98.4037 142.403 98.3274 142.403 98.2478V97.9744C142.403 97.8087 142.268 97.6744 142.103 97.6744H142.005C141.839 97.6744 141.705 97.5401 141.705 97.3744V94.8837V94.486C141.705 94.3204 141.839 94.186 142.005 94.186H142.103C142.268 94.186 142.403 94.0517 142.403 93.886V93.0907C142.403 92.925 142.268 92.7907 142.103 92.7907H142.005C141.839 92.7907 141.705 92.6564 141.705 92.4907Z" fill="#E2E6EE" stroke="#040404" stroke-width="0.4"/>
<path fill-rule="evenodd" clip-rule="evenodd" d="M133.628 94.8838C133.462 94.8838 133.328 94.7495 133.328 94.5838V94.257C133.328 94.2104 133.339 94.1644 133.36 94.1228L133.943 92.9565C133.994 92.8549 134.098 92.7908 134.211 92.7908H136.049C136.096 92.7908 136.142 92.8016 136.183 92.8224L137.427 93.4437C137.485 93.4728 137.532 93.5198 137.561 93.5779L138.183 94.8204C138.203 94.8621 138.214 94.9081 138.214 94.9546V98.7698C138.214 98.9355 138.08 99.0698 137.914 99.0698H136.244C136.165 99.0698 136.089 99.0383 136.032 98.982L135.634 98.5841C135.517 98.467 135.327 98.467 135.21 98.5841L134.812 98.982C134.756 99.0383 134.679 99.0698 134.6 99.0698H133.513C133.4 99.0698 133.296 99.0057 133.245 98.9041L132.662 97.7379C132.641 97.6962 132.63 97.6502 132.63 97.6036V96.4646C132.63 96.3509 132.694 96.247 132.796 96.1962L133.963 95.6131C134.004 95.5923 134.05 95.5815 134.097 95.5815H135.82C135.986 95.5815 136.12 95.4472 136.12 95.2815V95.0081C136.12 94.9285 136.089 94.8522 136.032 94.7959L135.51 94.2739C135.454 94.2177 135.377 94.1861 135.298 94.1861H134.848C134.769 94.1861 134.692 94.2177 134.636 94.2739L134.114 94.796C134.058 94.8522 133.981 94.8838 133.902 94.8838H133.628ZM136.12 96.5791C136.12 96.4135 135.986 96.2791 135.82 96.2791H135.546C135.467 96.2791 135.39 96.3107 135.334 96.367L134.812 96.8889C134.756 96.9452 134.724 97.0215 134.724 97.1011V97.3745C134.724 97.5402 134.858 97.6745 135.024 97.6745H135.82C135.986 97.6745 136.12 97.5402 136.12 97.3745V96.5791Z" fill="#E2E6EE" stroke="#040404" stroke-width="0.4"/>
<path fill-rule="evenodd" clip-rule="evenodd" d="M119.243 96.2791C119.322 96.2791 119.398 96.2476 119.455 96.1913L119.977 95.6693C120.033 95.6131 120.065 95.5368 120.065 95.4572V94.3104C120.065 94.2308 120.033 94.1545 119.977 94.0982L119.401 93.5229C119.378 93.5001 119.352 93.4811 119.323 93.4667L118.034 92.8224C117.992 92.8016 117.946 92.7908 117.9 92.7908H117.343C117.297 92.7908 117.251 92.8016 117.209 92.8224L115.92 93.4667C115.891 93.4811 115.865 93.5001 115.842 93.5229L114.568 94.7959C114.512 94.8522 114.48 94.9285 114.48 95.0081V96.8525C114.48 96.9321 114.512 97.0084 114.568 97.0647L116.487 98.982C116.543 99.0383 116.619 99.0698 116.699 99.0698H118.545C118.624 99.0698 118.7 99.0383 118.757 98.982L119.977 97.7624C120.033 97.7061 120.065 97.6298 120.065 97.5502V97.2768C120.065 97.1111 119.931 96.9768 119.765 96.9768H119.491C119.412 96.9768 119.335 97.0084 119.279 97.0646L118.757 97.5867C118.7 97.6429 118.624 97.6745 118.545 97.6745H118.095C118.015 97.6745 117.939 97.6429 117.883 97.5867L117.485 97.189C117.368 97.0718 117.368 96.8818 117.485 96.7646L117.883 96.367C117.939 96.3107 118.015 96.2791 118.095 96.2791H119.243ZM117.148 95.5815C117.228 95.5815 117.304 95.5499 117.361 95.4937L117.758 95.096C117.876 94.9788 117.876 94.7888 117.758 94.6716L117.485 94.3981C117.368 94.281 117.178 94.281 117.061 94.3981L116.663 94.7959C116.606 94.8522 116.575 94.9285 116.575 95.0081V95.2815C116.575 95.4472 116.709 95.5815 116.875 95.5815H117.148Z" fill="#E2E6EE" stroke="#040404" stroke-width="0.4"/>
<path fill-rule="evenodd" clip-rule="evenodd" d="M155.541 96.2791C155.621 96.2791 155.697 96.2476 155.753 96.1913L156.276 95.6693C156.332 95.6131 156.364 95.5368 156.364 95.4572V94.3104C156.364 94.2308 156.332 94.1545 156.276 94.0982L155.7 93.5229C155.677 93.5001 155.651 93.4811 155.622 93.4667L154.333 92.8224C154.291 92.8016 154.245 92.7908 154.199 92.7908H153.642C153.596 92.7908 153.55 92.8016 153.508 92.8224L152.219 93.4667C152.19 93.4811 152.164 93.5001 152.141 93.5229L150.867 94.7959C150.811 94.8522 150.779 94.9285 150.779 95.0081V96.8525C150.779 96.9321 150.811 97.0084 150.867 97.0647L152.785 98.982C152.842 99.0383 152.918 99.0698 152.998 99.0698H154.843C154.923 99.0698 154.999 99.0383 155.055 98.982L156.276 97.7624C156.332 97.7061 156.364 97.6298 156.364 97.5502V97.2768C156.364 97.1111 156.229 96.9768 156.064 96.9768H155.79C155.71 96.9768 155.634 97.0084 155.578 97.0646L155.055 97.5867C154.999 97.6429 154.923 97.6745 154.843 97.6745H154.394C154.314 97.6745 154.238 97.6429 154.182 97.5867L153.784 97.189C153.666 97.0718 153.666 96.8818 153.784 96.7646L154.182 96.367C154.238 96.3107 154.314 96.2791 154.394 96.2791H155.541ZM153.447 95.5815C153.527 95.5815 153.603 95.5499 153.659 95.4937L154.057 95.096C154.174 94.9788 154.174 94.7888 154.057 94.6716L153.783 94.3981C153.666 94.281 153.476 94.281 153.359 94.3981L152.961 94.7959C152.905 94.8522 152.873 94.9285 152.873 95.0081V95.2815C152.873 95.4472 153.008 95.5815 153.173 95.5815H153.447Z" fill="#E2E6EE" stroke="#040404" stroke-width="0.4"/>
<path d="M143.799 97.5501V93.4884V92.2785C143.799 92.1649 143.863 92.061 143.965 92.0102L145.132 91.427C145.173 91.4062 145.219 91.3954 145.266 91.3954H145.593C145.759 91.3954 145.893 91.5297 145.893 91.6954V92.0931V93.4621C145.893 93.7293 146.216 93.8632 146.405 93.6743L146.591 93.4884L147.201 92.8785C147.257 92.8223 147.334 92.7907 147.413 92.7907H147.987H148.561C148.64 92.7907 148.717 92.8223 148.773 92.8785L149.295 93.4005C149.352 93.4568 149.383 93.5331 149.383 93.6127V94.8838V97.3745C149.383 97.5401 149.517 97.6745 149.683 97.6745H149.781C149.947 97.6745 150.081 97.8088 150.081 97.9745V98.3721V98.7698C150.081 98.9355 149.947 99.0698 149.781 99.0698H147.589C147.423 99.0698 147.289 98.9355 147.289 98.7698V98.3721V97.6745V95.1838C147.289 95.0181 147.155 94.8838 146.989 94.8838H146.715C146.636 94.8838 146.559 94.9153 146.503 94.9716L145.981 95.4936C145.925 95.5498 145.893 95.6262 145.893 95.7057V97.5501C145.893 97.6297 145.925 97.7061 145.981 97.7623L146.503 98.2843C146.559 98.3405 146.591 98.4168 146.591 98.4964V98.7698C146.591 98.9355 146.457 99.0698 146.291 99.0698H143.401C143.235 99.0698 143.101 98.9355 143.101 98.7698V98.4964C143.101 98.4168 143.132 98.3405 143.189 98.2843L143.711 97.7623C143.767 97.7061 143.799 97.6297 143.799 97.5501Z" fill="#E2E6EE" stroke="#040404" stroke-width="0.4"/>
<path d="M101.616 92.7907C101.781 92.7907 101.916 92.925 101.916 93.0907V94.1861V96.9768V97.3745C101.916 97.5402 101.781 97.6745 101.616 97.6745H101.518C101.352 97.6745 101.218 97.8088 101.218 97.9745V98.7698C101.218 98.9355 101.352 99.0698 101.518 99.0698H104.01H105.106C105.272 99.0698 105.406 98.9355 105.406 98.7698V97.9745C105.406 97.8088 105.272 97.6745 105.106 97.6745H105.008C104.842 97.6745 104.708 97.5402 104.708 97.3745V93.0908C104.708 92.9251 104.842 92.7908 105.008 92.7908H105.282C105.361 92.7908 105.437 92.8223 105.494 92.8786L106.016 93.4006C106.072 93.4569 106.149 93.4884 106.228 93.4884H106.502C106.668 93.4884 106.802 93.3541 106.802 93.1884V92.2174C106.802 92.1378 106.77 92.0615 106.714 92.0052L106.192 91.4832C106.135 91.427 106.059 91.3954 105.98 91.3954L105.406 91.3954H104.708H101.916H101.218H100.644C100.564 91.3954 100.488 91.427 100.432 91.4832L99.9093 92.0052C99.853 92.0615 99.8214 92.1378 99.8214 92.2174V92.7908V93.1884C99.8214 93.3541 99.9557 93.4884 100.121 93.4884H100.395C100.475 93.4884 100.551 93.4569 100.607 93.4006L101.13 92.8785C101.186 92.8223 101.262 92.7907 101.342 92.7907H101.616Z" fill="#E2E6EE" stroke="#040404" stroke-width="0.4"/>
<path d="M128.043 94.186H128.442H130.934C131.099 94.186 131.234 94.3203 131.234 94.486V94.8837V95.5814V98.7697C131.234 98.9354 131.099 99.0697 130.934 99.0697H130.66C130.58 99.0697 130.504 99.0381 130.448 98.9819L130.05 98.584C129.933 98.4669 129.743 98.4669 129.626 98.584L129.227 98.9819C129.171 99.0381 129.095 99.0697 129.015 99.0697H127.743H126.418C126.372 99.0697 126.326 99.0589 126.284 99.0381L124.995 98.3938C124.966 98.3794 124.94 98.3604 124.917 98.3376L124.303 97.7245C124.27 97.6915 124.246 97.6514 124.231 97.6072L123.571 95.6276C123.56 95.597 123.555 95.5649 123.555 95.5326V94.2569C123.555 94.2103 123.566 94.1643 123.587 94.1226L124.231 92.8342C124.246 92.8054 124.265 92.779 124.288 92.7562L125.649 91.3953L126.26 90.7854C126.316 90.7292 126.392 90.6976 126.472 90.6976H127.743H129.14H129.713C129.793 90.6976 129.869 90.7292 129.926 90.7854L130.536 91.3953L131.021 91.8808C131.139 91.998 131.139 92.188 131.021 92.3052L130.536 92.7907L129.926 93.4005C129.869 93.4567 129.793 93.4883 129.713 93.4883H128.742C128.576 93.4883 128.442 93.354 128.442 93.1883V92.393C128.442 92.2273 128.307 92.093 128.142 92.093H127.868C127.788 92.093 127.712 92.1246 127.656 92.1808L126.435 93.4005C126.379 93.4567 126.347 93.533 126.347 93.6126V95.5105C126.347 95.5571 126.358 95.603 126.379 95.6447L127.001 96.8873C127.03 96.9453 127.077 96.9924 127.135 97.0214L128.248 97.5778C128.364 97.6355 128.503 97.6128 128.594 97.5216L129.052 97.0646C129.108 97.0083 129.14 96.932 129.14 96.8524V96.279V95.8814C129.14 95.7157 129.005 95.5814 128.84 95.5814H128.566C128.486 95.5814 128.41 95.5498 128.354 95.4935L127.831 94.9716C127.775 94.9153 127.743 94.839 127.743 94.7594V94.486C127.743 94.3203 127.878 94.186 128.043 94.186Z" fill="#E2E6EE" stroke="#040404" stroke-width="0.4"/>
<path d="M107.5 97.5501V93.4884V92.2785C107.5 92.1649 107.564 92.061 107.666 92.0102L108.833 91.427C108.874 91.4062 108.92 91.3954 108.967 91.3954H109.294C109.46 91.3954 109.594 91.5297 109.594 91.6954V92.0931V93.4621C109.594 93.7293 109.917 93.8632 110.106 93.6743L110.292 93.4884L110.902 92.8785C110.959 92.8223 111.035 92.7907 111.115 92.7907H111.688H112.262C112.342 92.7907 112.418 92.8223 112.474 92.8785L112.997 93.4005C113.053 93.4568 113.084 93.5331 113.084 93.6127V94.8838V97.3745C113.084 97.5401 113.219 97.6745 113.384 97.6745H113.483C113.648 97.6745 113.783 97.8088 113.783 97.9745V98.3721V98.7698C113.783 98.9355 113.648 99.0698 113.483 99.0698H111.29C111.125 99.0698 110.99 98.9355 110.99 98.7698V98.3721V97.6745V95.1838C110.99 95.0181 110.856 94.8838 110.69 94.8838H110.416C110.337 94.8838 110.261 94.9153 110.204 94.9716L109.682 95.4936C109.626 95.5498 109.594 95.6262 109.594 95.7057V97.5501C109.594 97.6297 109.626 97.7061 109.682 97.7623L110.204 98.2843C110.261 98.3405 110.292 98.4168 110.292 98.4964V98.7698C110.292 98.9355 110.158 99.0698 109.992 99.0698H107.102C106.936 99.0698 106.802 98.9355 106.802 98.7698V98.4964C106.802 98.4168 106.834 98.3405 106.89 98.2843L107.412 97.7623C107.468 97.7061 107.5 97.6297 107.5 97.5501Z" fill="#E2E6EE" stroke="#040404" stroke-width="0.4"/>
<path d="M158.582 92.7908H158.889C159.036 92.7908 159.156 92.9101 159.156 93.0574C159.156 93.3386 159.535 93.4282 159.661 93.1766L159.771 92.9565C159.822 92.8549 159.926 92.7908 160.039 92.7908H161.126C161.205 92.7908 161.282 92.8224 161.338 92.8786L161.86 93.4006C161.916 93.4568 161.948 93.5332 161.948 93.6128V94.0618C161.948 94.1414 161.916 94.2177 161.86 94.274L161.338 94.796C161.282 94.8522 161.205 94.8838 161.126 94.8838H159.978C159.899 94.8838 159.822 94.9154 159.766 94.9716L159.244 95.4936C159.187 95.5499 159.156 95.6262 159.156 95.7058V97.3745C159.156 97.5402 159.29 97.6745 159.456 97.6745H160.252C160.418 97.6745 160.552 97.8088 160.552 97.9745V98.2479C160.552 98.3274 160.52 98.4038 160.464 98.46L159.942 98.982C159.885 99.0383 159.809 99.0698 159.73 99.0698H157.362C157.196 99.0698 157.062 98.9355 157.062 98.7698V97.9745C157.062 97.8088 157.196 97.6745 157.362 97.6745H157.46C157.625 97.6745 157.76 97.5402 157.76 97.3745V95.1838C157.76 95.0181 157.625 94.8838 157.46 94.8838H157.362C157.196 94.8838 157.062 94.7495 157.062 94.5838V93.7884C157.062 93.6228 157.196 93.4884 157.362 93.4884H157.635C157.715 93.4884 157.791 93.4569 157.848 93.4006L158.37 92.8786C158.426 92.8224 158.502 92.7908 158.582 92.7908Z" fill="#E2E6EE" stroke="#040404" stroke-width="0.4"/>
<path d="M162.646 97.3745C162.646 97.5401 162.512 97.6745 162.346 97.6745H162.248C162.082 97.6745 161.948 97.8088 161.948 97.9745V98.7698C161.948 98.9355 162.082 99.0698 162.248 99.0698H165.138C165.304 99.0698 165.438 98.9355 165.438 98.7698V97.9745C165.438 97.8088 165.304 97.6745 165.138 97.6745H165.04C164.875 97.6745 164.74 97.5401 164.74 97.3745V93.7884C164.74 93.6227 164.606 93.4884 164.44 93.4884H162.946C162.78 93.4884 162.646 93.6227 162.646 93.7884V97.3745Z" fill="#E2E6EE"/>
<path d="M162.734 92.0052C162.678 92.0614 162.646 92.1378 162.646 92.2174V92.4907C162.646 92.6564 162.78 92.7907 162.946 92.7907H164.44C164.606 92.7907 164.74 92.6564 164.74 92.4907V91.6954C164.74 91.5297 164.606 91.3954 164.44 91.3954H163.468C163.389 91.3954 163.312 91.427 163.256 91.4832L162.734 92.0052Z" fill="#E2E6EE"/>
<path d="M162.646 97.3745C162.646 97.5401 162.512 97.6745 162.346 97.6745H162.248C162.082 97.6745 161.948 97.8088 161.948 97.9745V98.7698C161.948 98.9355 162.082 99.0698 162.248 99.0698H165.138C165.304 99.0698 165.438 98.9355 165.438 98.7698V97.9745C165.438 97.8088 165.304 97.6745 165.138 97.6745H165.04C164.875 97.6745 164.74 97.5401 164.74 97.3745V93.7884C164.74 93.6227 164.606 93.4884 164.44 93.4884H162.946C162.78 93.4884 162.646 93.6227 162.646 93.7884V97.3745Z" stroke="#040404" stroke-width="0.4"/>
<path d="M162.734 92.0052C162.678 92.0614 162.646 92.1378 162.646 92.2174V92.4907C162.646 92.6564 162.78 92.7907 162.946 92.7907H164.44C164.606 92.7907 164.74 92.6564 164.74 92.4907V91.6954C164.74 91.5297 164.606 91.3954 164.44 91.3954H163.468C163.389 91.3954 163.312 91.427 163.256 91.4832L162.734 92.0052Z" stroke="#040404" stroke-width="0.4"/>
<path fill-rule="evenodd" clip-rule="evenodd" d="M173.903 94.0982C173.847 94.1544 173.815 94.2308 173.815 94.3104V95.5105C173.815 95.5571 173.826 95.6031 173.847 95.6448L174.491 96.9332C174.506 96.962 174.525 96.9884 174.547 97.0112L174.699 97.1622C174.888 97.3512 174.754 97.6744 174.487 97.6744H174.115C173.949 97.6744 173.815 97.8087 173.815 97.9744V98.2478C173.815 98.3274 173.847 98.4037 173.903 98.46L174.425 98.9819C174.481 99.0381 174.513 99.1145 174.513 99.1941V100.341C174.513 100.42 174.545 100.497 174.601 100.553L175.123 101.075C175.179 101.131 175.256 101.163 175.335 101.163H177.234C177.281 101.163 177.327 101.152 177.369 101.131L178.535 100.548C178.637 100.497 178.701 100.393 178.701 100.28V98.4964C178.701 98.4168 178.67 98.3405 178.613 98.2842L178.003 97.6744L179.311 96.3669C179.368 96.3107 179.399 96.2343 179.399 96.1548V94.3104C179.399 94.2308 179.368 94.1544 179.311 94.0982L178.789 93.5762C178.733 93.52 178.701 93.4436 178.701 93.3641V92.393C178.701 92.2273 178.567 92.093 178.401 92.093H178.127C178.048 92.093 177.972 92.1246 177.915 92.1808L177.393 92.7029C177.337 92.7591 177.261 92.7907 177.181 92.7907H175.335C175.256 92.7907 175.179 92.8223 175.123 92.8785L173.903 94.0982ZM176.695 94.2739C176.639 94.2176 176.562 94.186 176.483 94.186H176.209C176.043 94.186 175.909 94.3204 175.909 94.486V96.1548C175.909 96.2343 175.941 96.3107 175.997 96.3669L176.395 96.7648C176.512 96.8819 176.702 96.8819 176.819 96.7648L177.217 96.3669C177.274 96.3107 177.305 96.2343 177.305 96.1548V95.008C177.305 94.9284 177.274 94.8521 177.217 94.7958L176.695 94.2739ZM177.093 99.9796C177.21 99.8625 177.21 99.6724 177.093 99.5552L176.695 99.1576C176.639 99.1013 176.562 99.0698 176.483 99.0698H176.209C176.043 99.0698 175.909 99.2041 175.909 99.3698V99.6431C175.909 99.7227 175.941 99.799 175.997 99.8553L176.395 100.253C176.512 100.37 176.702 100.37 176.819 100.253L177.093 99.9796Z" fill="#E2E6EE"/>
<path d="M178.003 97.6744L178.613 98.2842C178.67 98.3405 178.701 98.4168 178.701 98.4964V100.28C178.701 100.393 178.637 100.497 178.535 100.548L177.369 101.131C177.327 101.152 177.281 101.163 177.234 101.163H175.335C175.256 101.163 175.179 101.131 175.123 101.075L174.601 100.553C174.545 100.497 174.513 100.42 174.513 100.341V99.1941C174.513 99.1145 174.481 99.0381 174.425 98.9819L173.903 98.46C173.847 98.4037 173.815 98.3274 173.815 98.2478V97.9744C173.815 97.8087 173.949 97.6744 174.115 97.6744H174.487C174.754 97.6744 174.888 97.3512 174.699 97.1622L174.547 97.0112C174.525 96.9884 174.506 96.962 174.491 96.9332L173.847 95.6448C173.826 95.6031 173.815 95.5571 173.815 95.5105V94.3104C173.815 94.2308 173.847 94.1544 173.903 94.0982L175.123 92.8785C175.179 92.8223 175.256 92.7907 175.335 92.7907H177.181C177.261 92.7907 177.337 92.7591 177.393 92.7029L177.915 92.1808C177.972 92.1246 178.048 92.093 178.127 92.093H178.401C178.567 92.093 178.701 92.2273 178.701 92.393V93.3641C178.701 93.4436 178.733 93.52 178.789 93.5762L179.311 94.0982C179.368 94.1544 179.399 94.2308 179.399 94.3104V96.1548C179.399 96.2343 179.368 96.3107 179.311 96.3669L178.003 97.6744ZM178.003 97.6744H177.305M175.909 99.3698V99.6431C175.909 99.7227 175.941 99.799 175.997 99.8553L176.395 100.253C176.512 100.37 176.702 100.37 176.819 100.253L177.093 99.9796C177.21 99.8625 177.21 99.6724 177.093 99.5552L176.695 99.1576C176.639 99.1013 176.562 99.0698 176.483 99.0698H176.209C176.043 99.0698 175.909 99.2041 175.909 99.3698ZM175.997 96.3669L176.395 96.7648C176.512 96.8819 176.702 96.8819 176.819 96.7648L177.217 96.3669C177.274 96.3107 177.305 96.2343 177.305 96.1548V95.008C177.305 94.9284 177.274 94.8521 177.217 94.7958L176.695 94.2739C176.639 94.2176 176.562 94.186 176.483 94.186H176.209C176.043 94.186 175.909 94.3204 175.909 94.486V96.1548C175.909 96.2343 175.941 96.3107 175.997 96.3669Z" stroke="#040404" stroke-width="0.4"/>
<path d="M134.524 161.86C134.524 164.447 132.426 166.544 129.838 166.544C127.249 166.544 125.151 164.447 125.151 161.86C125.151 159.274 127.249 157.177 129.838 157.177C132.426 157.177 134.524 159.274 134.524 161.86Z" fill="#E2E6EE" stroke="#040404" stroke-width="0.4"/>
<path d="M127.544 188.372C127.544 190.959 125.445 193.056 122.857 193.056C120.269 193.056 118.171 190.959 118.171 188.372C118.171 185.785 120.269 183.688 122.857 183.688C125.445 183.688 127.544 185.785 127.544 188.372Z" fill="#E2E6EE" stroke="#040404" stroke-width="0.4"/>
<path d="M89.8487 161.86C89.8487 164.447 87.7507 166.544 85.1624 166.544C82.5741 166.544 80.476 164.447 80.476 161.86C80.476 159.274 82.5741 157.177 85.1624 157.177C87.7507 157.177 89.8487 159.274 89.8487 161.86Z" fill="#E2E6EE" stroke="#040404" stroke-width="0.4"/>
<path d="M96.8292 188.372C96.8292 190.959 94.7311 193.056 92.1428 193.056C89.5545 193.056 87.4565 190.959 87.4565 188.372C87.4565 185.785 89.5545 183.688 92.1428 183.688C94.7311 183.688 96.8292 185.785 96.8292 188.372Z" fill="#E2E6EE" stroke="#040404" stroke-width="0.4"/>
<path d="M112.186 145.814C112.186 148.401 110.088 150.498 107.5 150.498C104.912 150.498 102.814 148.401 102.814 145.814C102.814 143.227 104.912 141.13 107.5 141.13C110.088 141.13 112.186 143.227 112.186 145.814Z" fill="#E2E6EE" stroke="#040404" stroke-width="0.4"/>
<ellipse cx="190.568" cy="27.2093" rx="4.88636" ry="4.88372" fill="#E2E6EE"/>
<ellipse cx="25.1299" cy="271.395" rx="4.88636" ry="4.88372" fill="#E2E6EE"/>
<ellipse cx="189.172" cy="271.395" rx="4.88636" ry="4.88372" fill="#E2E6EE"/>
<ellipse cx="25.8279" cy="27.2093" rx="4.88636" ry="4.88372" fill="#E2E6EE"/>
</svg>
